G04 #@! TF.FileFunction,Soldermask,Top*
%FSLAX46Y46*%
G04 Gerber Fmt 4.6, Leading zero omitted, Abs format (unit mm)*
G04 Created by KiCad (PCBNEW 4.0.3-stable) date 08/31/18 19:04:58*
%MOMM*%
%LPD*%
G01*
G04 APERTURE LIST*
%ADD10C,0.152400*%
%ADD11C,0.002540*%
%ADD12R,1.708000X1.408000*%
%ADD13R,1.708000X1.258000*%
%ADD14R,1.258000X1.708000*%
%ADD15R,0.863600X1.778000*%
%ADD16R,1.209040X7.508240*%
%ADD17R,1.209040X6.507480*%
%ADD18R,4.165600X2.540000*%
%ADD19R,1.524000X2.540000*%
%ADD20C,2.159000*%
%ADD21R,1.107440X1.907540*%
%ADD22R,2.009140X2.407920*%
%ADD23R,2.407920X2.407920*%
%ADD24R,2.108200X2.108200*%
%ADD25C,2.407920*%
%ADD26R,2.540000X2.235200*%
%ADD27O,2.540000X2.235200*%
%ADD28R,2.508000X2.508000*%
%ADD29C,2.508000*%
%ADD30R,2.235200X2.235200*%
%ADD31O,2.235200X2.235200*%
%ADD32R,2.508000X2.108000*%
%ADD33R,1.706880X1.706880*%
%ADD34R,1.981200X0.762000*%
%ADD35R,0.762000X1.981200*%
%ADD36R,5.508000X5.508000*%
%ADD37R,0.793000X1.508000*%
%ADD38R,1.508000X0.793000*%
%ADD39R,1.143000X1.651000*%
%ADD40R,1.651000X1.143000*%
%ADD41R,0.914400X1.778000*%
%ADD42R,3.007360X1.005840*%
%ADD43R,3.007360X2.506980*%
%ADD44C,1.915160*%
%ADD45R,1.708000X1.708000*%
%ADD46R,2.208000X2.208000*%
%ADD47O,2.208000X2.208000*%
%ADD48C,2.235200*%
%ADD49C,0.254000*%
G04 APERTURE END LIST*
D10*
D11*
G36*
X122184640Y-85123520D02*
X122161780Y-85377520D01*
X122072880Y-85542620D01*
X121938260Y-85656920D01*
X121712200Y-85794080D01*
X121562340Y-85814400D01*
X121450580Y-85710260D01*
X121417560Y-85654380D01*
X121323580Y-85476580D01*
X121135620Y-85654380D01*
X120952740Y-85789000D01*
X120785100Y-85809320D01*
X120592060Y-85705180D01*
X120386320Y-85529920D01*
X120188200Y-85324180D01*
X120094220Y-85141300D01*
X120068820Y-84907620D01*
X120068820Y-84872060D01*
X120094220Y-84605360D01*
X120195820Y-84402160D01*
X120348220Y-84239600D01*
X120627620Y-84031320D01*
X120871460Y-83975440D01*
X121067040Y-84077040D01*
X121084820Y-84097360D01*
X121257540Y-84183720D01*
X121359140Y-84173560D01*
X121511540Y-84181180D01*
X121707120Y-84308180D01*
X121854440Y-84442800D01*
X122055100Y-84661240D01*
X122154160Y-84846660D01*
X122184640Y-85067640D01*
X122184640Y-85123520D01*
X122184640Y-85123520D01*
X122184640Y-85123520D01*
G37*
X122184640Y-85123520D02*
X122161780Y-85377520D01*
X122072880Y-85542620D01*
X121938260Y-85656920D01*
X121712200Y-85794080D01*
X121562340Y-85814400D01*
X121450580Y-85710260D01*
X121417560Y-85654380D01*
X121323580Y-85476580D01*
X121135620Y-85654380D01*
X120952740Y-85789000D01*
X120785100Y-85809320D01*
X120592060Y-85705180D01*
X120386320Y-85529920D01*
X120188200Y-85324180D01*
X120094220Y-85141300D01*
X120068820Y-84907620D01*
X120068820Y-84872060D01*
X120094220Y-84605360D01*
X120195820Y-84402160D01*
X120348220Y-84239600D01*
X120627620Y-84031320D01*
X120871460Y-83975440D01*
X121067040Y-84077040D01*
X121084820Y-84097360D01*
X121257540Y-84183720D01*
X121359140Y-84173560D01*
X121511540Y-84181180D01*
X121707120Y-84308180D01*
X121854440Y-84442800D01*
X122055100Y-84661240D01*
X122154160Y-84846660D01*
X122184640Y-85067640D01*
X122184640Y-85123520D01*
X122184640Y-85123520D01*
G36*
X124965940Y-85176860D02*
X124859260Y-85308940D01*
X124610340Y-85390220D01*
X124343640Y-85408000D01*
X124003280Y-85380060D01*
X123807700Y-85293700D01*
X123787380Y-85273380D01*
X123708640Y-85098120D01*
X123787380Y-84966040D01*
X124010900Y-84884760D01*
X124343640Y-84856820D01*
X124658600Y-84872060D01*
X124844020Y-84925400D01*
X124922760Y-84999060D01*
X124965940Y-85176860D01*
X124965940Y-85176860D01*
X124965940Y-85176860D01*
G37*
X124965940Y-85176860D02*
X124859260Y-85308940D01*
X124610340Y-85390220D01*
X124343640Y-85408000D01*
X124003280Y-85380060D01*
X123807700Y-85293700D01*
X123787380Y-85273380D01*
X123708640Y-85098120D01*
X123787380Y-84966040D01*
X124010900Y-84884760D01*
X124343640Y-84856820D01*
X124658600Y-84872060D01*
X124844020Y-84925400D01*
X124922760Y-84999060D01*
X124965940Y-85176860D01*
X124965940Y-85176860D01*
G36*
X124706860Y-84313260D02*
X124676380Y-84435180D01*
X124531600Y-84511380D01*
X124252200Y-84552020D01*
X123843260Y-84562180D01*
X123416540Y-84549480D01*
X123116820Y-84516460D01*
X122966960Y-84460580D01*
X122964420Y-84460580D01*
X122883140Y-84298020D01*
X122862820Y-84163400D01*
X122870440Y-84074500D01*
X122911080Y-84018620D01*
X123020300Y-83985600D01*
X123226040Y-83972900D01*
X123558780Y-83967820D01*
X123706100Y-83967820D01*
X124097260Y-83972900D01*
X124353800Y-83985600D01*
X124508740Y-84018620D01*
X124595100Y-84071960D01*
X124638280Y-84130380D01*
X124706860Y-84313260D01*
X124706860Y-84313260D01*
X124706860Y-84313260D01*
G37*
X124706860Y-84313260D02*
X124676380Y-84435180D01*
X124531600Y-84511380D01*
X124252200Y-84552020D01*
X123843260Y-84562180D01*
X123416540Y-84549480D01*
X123116820Y-84516460D01*
X122966960Y-84460580D01*
X122964420Y-84460580D01*
X122883140Y-84298020D01*
X122862820Y-84163400D01*
X122870440Y-84074500D01*
X122911080Y-84018620D01*
X123020300Y-83985600D01*
X123226040Y-83972900D01*
X123558780Y-83967820D01*
X123706100Y-83967820D01*
X124097260Y-83972900D01*
X124353800Y-83985600D01*
X124508740Y-84018620D01*
X124595100Y-84071960D01*
X124638280Y-84130380D01*
X124706860Y-84313260D01*
X124706860Y-84313260D01*
D12*
X77250000Y-133275000D03*
X79450000Y-133275000D03*
D13*
X73600000Y-120050000D03*
X75500000Y-120050000D03*
X40850000Y-144700000D03*
X38950000Y-144700000D03*
X43400000Y-123300000D03*
X41500000Y-123300000D03*
X73600000Y-130825000D03*
X75500000Y-130825000D03*
X44550000Y-131050000D03*
X42650000Y-131050000D03*
D14*
X71850000Y-110050000D03*
X71850000Y-108150000D03*
D13*
X73600000Y-127025000D03*
X75500000Y-127025000D03*
X71000000Y-133300000D03*
X72900000Y-133300000D03*
D14*
X73800000Y-110050000D03*
X73800000Y-108150000D03*
D13*
X47450000Y-134250000D03*
X45550000Y-134250000D03*
D15*
X56301300Y-91870560D03*
X56301300Y-103229440D03*
X55501200Y-91870560D03*
X55501200Y-103229440D03*
X54701100Y-91870560D03*
X54701100Y-103229440D03*
X53901000Y-91870560D03*
X53901000Y-103229440D03*
X53100900Y-91870560D03*
X53100900Y-103229440D03*
X52300800Y-91870560D03*
X52300800Y-103229440D03*
X51500700Y-91870560D03*
X51500700Y-103229440D03*
X50700600Y-91870560D03*
X50700600Y-103229440D03*
X49900500Y-91870560D03*
X49900500Y-103229440D03*
X49100400Y-91870560D03*
X49100400Y-103229440D03*
X48300300Y-91870560D03*
X48300300Y-103229440D03*
X47500200Y-91870560D03*
X47500200Y-103229440D03*
X46700100Y-91870560D03*
X46700100Y-103229440D03*
X45900000Y-91870560D03*
X45900000Y-103229440D03*
X45099900Y-91870560D03*
X45099900Y-103229440D03*
X44299800Y-91870560D03*
X44299800Y-103229440D03*
X43499700Y-91870560D03*
X43499700Y-103229440D03*
X42699600Y-91870560D03*
X42699600Y-103229440D03*
X41899500Y-91870560D03*
X41899500Y-103229440D03*
X41099400Y-91870560D03*
X41099400Y-103229440D03*
X40299300Y-91870560D03*
X40299300Y-103229440D03*
X39499200Y-91870560D03*
X39499200Y-103229440D03*
X38699100Y-91870560D03*
X38699100Y-103229440D03*
X37899000Y-91870560D03*
X37899000Y-103229440D03*
X37098900Y-91870560D03*
X37098900Y-103229440D03*
X36298800Y-91870560D03*
X36298800Y-103229440D03*
X35498700Y-91870560D03*
X35498700Y-103229440D03*
D16*
X40855900Y-153779220D03*
X41854120Y-153779220D03*
D17*
X42855140Y-153280100D03*
X43855640Y-153279220D03*
X44856400Y-153279220D03*
X45854620Y-153279220D03*
D16*
X46855140Y-153780100D03*
X47856140Y-153779220D03*
D17*
X48854360Y-153279220D03*
X49855120Y-153279220D03*
X50855880Y-153279220D03*
X51854100Y-153279220D03*
D16*
X52854860Y-153779220D03*
D17*
X53855620Y-153279220D03*
X54856380Y-153279220D03*
X55854600Y-153279220D03*
X56855360Y-153279220D03*
D16*
X57856120Y-153779220D03*
D17*
X58854340Y-153279220D03*
X59855100Y-153279220D03*
X60855860Y-153279220D03*
X61854080Y-153279220D03*
D16*
X62854840Y-153779220D03*
D17*
X63855600Y-153279220D03*
X64856360Y-153279220D03*
X65854580Y-153279220D03*
D16*
X66855340Y-153779220D03*
D17*
X67856100Y-153279220D03*
D16*
X68854320Y-153779220D03*
D17*
X69855080Y-153279220D03*
X70855840Y-153279220D03*
X71854060Y-153279220D03*
X72854820Y-153279220D03*
X73855580Y-153279220D03*
X74856340Y-153279220D03*
D16*
X75854560Y-153779220D03*
X40855900Y-153779220D03*
X41854120Y-153779220D03*
D17*
X42855140Y-153280100D03*
X43855140Y-153280100D03*
X44856400Y-153279220D03*
X45854620Y-153279220D03*
X46855380Y-153279220D03*
D16*
X47856140Y-153779220D03*
D17*
X48854360Y-153279220D03*
X49855120Y-153279220D03*
X50855880Y-153279220D03*
X51854100Y-153279220D03*
D16*
X52854860Y-153779220D03*
D17*
X53855620Y-153279220D03*
X54856380Y-153279220D03*
X55854600Y-153279220D03*
X56855360Y-153279220D03*
D16*
X57856120Y-153779220D03*
D17*
X58854340Y-153279220D03*
X59855100Y-153279220D03*
X60855860Y-153279220D03*
X61854080Y-153279220D03*
D16*
X62854840Y-153779220D03*
D17*
X63855600Y-153279220D03*
X64856360Y-153279220D03*
X65854580Y-153279220D03*
D16*
X66855340Y-153779220D03*
D17*
X67856100Y-153279220D03*
D16*
X68854320Y-153779220D03*
D17*
X69855080Y-153279220D03*
X70855840Y-153279220D03*
X71854060Y-153279220D03*
X72854820Y-153279220D03*
X73855580Y-153279220D03*
X74856340Y-153279220D03*
D16*
X75854560Y-153779220D03*
D17*
X83855560Y-153279220D03*
X84856320Y-153279220D03*
X85854540Y-153279220D03*
X86855300Y-153279220D03*
D16*
X87856060Y-153779220D03*
D17*
X88854280Y-153279220D03*
X89855040Y-153279220D03*
X90855800Y-153279220D03*
X91854020Y-153279220D03*
D16*
X92854780Y-153779220D03*
D17*
X93855540Y-153279220D03*
X94856300Y-153279220D03*
X95854520Y-153279220D03*
X96855280Y-153279220D03*
X97856040Y-153279220D03*
X98854260Y-153279220D03*
X99855020Y-153279220D03*
D16*
X100855780Y-153779220D03*
D17*
X101854000Y-153279220D03*
X102854760Y-153279220D03*
X103855520Y-153279220D03*
X104856280Y-153279220D03*
D16*
X105854500Y-153779220D03*
D17*
X106855260Y-153279220D03*
X107856020Y-153279220D03*
X108854240Y-153279220D03*
X109855000Y-153279220D03*
D16*
X110855760Y-153779220D03*
X111853980Y-153779220D03*
D17*
X112854740Y-153279220D03*
D16*
X113855500Y-153779220D03*
D17*
X83855560Y-153279220D03*
X84856320Y-153279220D03*
X85854540Y-153279220D03*
X86855300Y-153279220D03*
D16*
X87856060Y-153779220D03*
D17*
X88854280Y-153279220D03*
X89855040Y-153279220D03*
X90855800Y-153279220D03*
X91854020Y-153279220D03*
D16*
X92854780Y-153779220D03*
D17*
X93855540Y-153279220D03*
X94856300Y-153279220D03*
X95854520Y-153279220D03*
X96855280Y-153279220D03*
X97856040Y-153279220D03*
X98854260Y-153279220D03*
X99855020Y-153279220D03*
D16*
X100855780Y-153779220D03*
D17*
X101854000Y-153279220D03*
X102854760Y-153279220D03*
X103855520Y-153279220D03*
X104856280Y-153279220D03*
D16*
X105854500Y-153779220D03*
D17*
X106855260Y-153279220D03*
X107856020Y-153279220D03*
X108854240Y-153279220D03*
X109855000Y-153279220D03*
D16*
X110855760Y-153779220D03*
X111853980Y-153779220D03*
D17*
X112854740Y-153279220D03*
D16*
X113855500Y-153779220D03*
D13*
X43800000Y-116950000D03*
X41900000Y-116950000D03*
D18*
X118050000Y-141752000D03*
D19*
X118050000Y-135148000D03*
X115764000Y-135148000D03*
X120336000Y-135148000D03*
D20*
X60270000Y-87470000D03*
X60270000Y-84930000D03*
X62810000Y-87470000D03*
X62810000Y-84930000D03*
X65350000Y-87470000D03*
X65350000Y-84930000D03*
X67890000Y-87470000D03*
X67890000Y-84930000D03*
X70430000Y-87470000D03*
X70430000Y-84930000D03*
D21*
X99548800Y-109399640D03*
X94849800Y-109399640D03*
X100900080Y-109399640D03*
X80597860Y-109399640D03*
X83000700Y-109399640D03*
X85200340Y-109399640D03*
X87199320Y-109399640D03*
X90549580Y-109399640D03*
X91949120Y-109399640D03*
X89099240Y-109399640D03*
X96650660Y-109399640D03*
X98149260Y-109399640D03*
X93450260Y-109399640D03*
D22*
X76249380Y-106801220D03*
D23*
X76249380Y-82501040D03*
D22*
X103950620Y-108701140D03*
D24*
X103899820Y-82351180D03*
D25*
X78598880Y-87100980D03*
X101499520Y-87100980D03*
D26*
X73200000Y-105400000D03*
D27*
X73200000Y-102860000D03*
X73200000Y-100320000D03*
X73200000Y-97780000D03*
D28*
X32150000Y-96500000D03*
D29*
X29610000Y-96500000D03*
D28*
X32150000Y-102550000D03*
D29*
X29610000Y-102550000D03*
D30*
X121975000Y-123425000D03*
D31*
X119435000Y-123425000D03*
X121975000Y-120885000D03*
X119435000Y-120885000D03*
D32*
X118050000Y-131550000D03*
X122050000Y-131550000D03*
D33*
X33024020Y-112650000D03*
X30925980Y-112650000D03*
D30*
X32950000Y-123375000D03*
D31*
X30410000Y-123375000D03*
X32950000Y-120835000D03*
X30410000Y-120835000D03*
D34*
X69718520Y-131057920D03*
D35*
X67457920Y-111281480D03*
D34*
X47684020Y-113542080D03*
D35*
X49942080Y-133318520D03*
D34*
X69718520Y-130557540D03*
D35*
X66957540Y-111281480D03*
D34*
X47684020Y-114042460D03*
D35*
X50442460Y-133318520D03*
D34*
X69718520Y-130057160D03*
D35*
X66457160Y-111281480D03*
D34*
X47684020Y-114542840D03*
D35*
X50942840Y-133318520D03*
D34*
X69718520Y-129556780D03*
D35*
X65956780Y-111281480D03*
D34*
X47684020Y-115043220D03*
D35*
X51443220Y-133318520D03*
D34*
X69718520Y-129056400D03*
D35*
X65456400Y-111281480D03*
D34*
X47684020Y-115543600D03*
D35*
X51943600Y-133318520D03*
D34*
X69718520Y-128556020D03*
D35*
X64956020Y-111281480D03*
D34*
X47684020Y-116043980D03*
D35*
X52443980Y-133318520D03*
D34*
X69718520Y-128055640D03*
D35*
X64455640Y-111281480D03*
D34*
X47684020Y-116544360D03*
D35*
X52944360Y-133318520D03*
D34*
X69718520Y-127555260D03*
D35*
X63955260Y-111281480D03*
D34*
X47684020Y-117044740D03*
D35*
X53444740Y-133318520D03*
D34*
X69718520Y-127054880D03*
D35*
X63454880Y-111281480D03*
D34*
X47684020Y-117545120D03*
D35*
X53945120Y-133318520D03*
D34*
X69718520Y-126554500D03*
D35*
X62954500Y-111281480D03*
D34*
X47684020Y-118045500D03*
D35*
X54445500Y-133318520D03*
D34*
X69718520Y-126054120D03*
D35*
X62454120Y-111281480D03*
D34*
X47684020Y-118545880D03*
D35*
X54945880Y-133318520D03*
D34*
X69718520Y-125553740D03*
D35*
X61953740Y-111281480D03*
D34*
X47684020Y-119046260D03*
D35*
X55446260Y-133318520D03*
D34*
X69718520Y-125053360D03*
D35*
X61453360Y-111281480D03*
D34*
X47684020Y-119546640D03*
D35*
X55946640Y-133318520D03*
D34*
X69718520Y-124552980D03*
D35*
X60952980Y-111281480D03*
D34*
X47684020Y-120047020D03*
D35*
X56447020Y-133318520D03*
D34*
X69718520Y-124052600D03*
D35*
X60452600Y-111281480D03*
D34*
X47684020Y-120547400D03*
D35*
X56947400Y-133318520D03*
D34*
X69718520Y-123552220D03*
D35*
X59952220Y-111281480D03*
D34*
X47684020Y-121047780D03*
D35*
X57447780Y-133318520D03*
D34*
X69718520Y-123051840D03*
D35*
X59451840Y-111281480D03*
D34*
X47684020Y-121548160D03*
D35*
X57948160Y-133318520D03*
D34*
X69718520Y-122551460D03*
D35*
X58951460Y-111281480D03*
D34*
X47684020Y-122048540D03*
D35*
X58448540Y-133318520D03*
D34*
X69718520Y-122051080D03*
D35*
X58451080Y-111281480D03*
D34*
X47684020Y-122548920D03*
D35*
X58948920Y-133318520D03*
D34*
X69718520Y-121550700D03*
D35*
X57950700Y-111281480D03*
D34*
X47684020Y-123049300D03*
D35*
X59449300Y-133318520D03*
D34*
X69718520Y-121050320D03*
D35*
X57450320Y-111281480D03*
D34*
X47684020Y-123549680D03*
D35*
X59949680Y-133318520D03*
D34*
X69718520Y-120549940D03*
D35*
X56949940Y-111281480D03*
D34*
X47684020Y-124050060D03*
D35*
X60450060Y-133318520D03*
D34*
X69718520Y-120049560D03*
D35*
X56449560Y-111281480D03*
D34*
X47684020Y-124550440D03*
D35*
X60950440Y-133318520D03*
D34*
X69718520Y-119549180D03*
D35*
X55949180Y-111281480D03*
D34*
X47684020Y-125050820D03*
D35*
X61450820Y-133318520D03*
D34*
X69718520Y-119048800D03*
D35*
X55448800Y-111281480D03*
D34*
X47684020Y-125551200D03*
D35*
X61951200Y-133318520D03*
D34*
X69718520Y-118548420D03*
D35*
X54948420Y-111281480D03*
D34*
X47684020Y-126051580D03*
D35*
X62451580Y-133318520D03*
D34*
X69718520Y-118048040D03*
D35*
X54448040Y-111281480D03*
D34*
X47684020Y-126551960D03*
D35*
X62951960Y-133318520D03*
D34*
X69718520Y-117547660D03*
D35*
X53947660Y-111281480D03*
D34*
X47684020Y-127052340D03*
D35*
X63452340Y-133318520D03*
D34*
X69718520Y-117047280D03*
D35*
X53447280Y-111281480D03*
D34*
X47684020Y-127552720D03*
D35*
X63952720Y-133318520D03*
D34*
X69718520Y-116546900D03*
D35*
X52946900Y-111281480D03*
D34*
X47684020Y-128053100D03*
D35*
X64453100Y-133318520D03*
D34*
X69718520Y-116046520D03*
D35*
X52446520Y-111281480D03*
D34*
X47684020Y-128553480D03*
D35*
X64953480Y-133318520D03*
D34*
X69718520Y-115546140D03*
D35*
X51946140Y-111281480D03*
D34*
X47684020Y-129053860D03*
D35*
X65453860Y-133318520D03*
D34*
X69718520Y-115045760D03*
D35*
X51445760Y-111281480D03*
D34*
X47684020Y-129554240D03*
D35*
X65954240Y-133318520D03*
D34*
X69718520Y-114545380D03*
D35*
X50945380Y-111281480D03*
D34*
X47684020Y-130054620D03*
D35*
X66454620Y-133318520D03*
D34*
X69718520Y-114045000D03*
D35*
X50445000Y-111281480D03*
D34*
X47684020Y-130555000D03*
D35*
X66955000Y-133318520D03*
D34*
X69718520Y-113544620D03*
D35*
X49944620Y-111281480D03*
D34*
X47684020Y-131055380D03*
D35*
X67455380Y-133318520D03*
D36*
X58700000Y-122300000D03*
D37*
X60650000Y-144800000D03*
X61150000Y-144800000D03*
X61650000Y-144800000D03*
X62150000Y-144800000D03*
X62650000Y-144800000D03*
X63150000Y-144800000D03*
X63650000Y-144800000D03*
X64150000Y-144800000D03*
X64650000Y-144800000D03*
X65150000Y-144800000D03*
X65650000Y-144800000D03*
X66150000Y-144800000D03*
X66650000Y-144800000D03*
X67150000Y-144800000D03*
X67650000Y-144800000D03*
X68150000Y-144800000D03*
X68650000Y-144800000D03*
X69150000Y-144800000D03*
X69650000Y-144800000D03*
X70150000Y-144800000D03*
X70650000Y-144800000D03*
X71150000Y-144800000D03*
X71650000Y-144800000D03*
X72150000Y-144800000D03*
X72150000Y-137300000D03*
X71650000Y-137300000D03*
X71150000Y-137300000D03*
X70650000Y-137300000D03*
X70150000Y-137300000D03*
X69650000Y-137300000D03*
X69150000Y-137300000D03*
X68650000Y-137300000D03*
X68150000Y-137300000D03*
X67650000Y-137300000D03*
X67150000Y-137300000D03*
X66650000Y-137300000D03*
X66150000Y-137300000D03*
X65650000Y-137300000D03*
X65150000Y-137300000D03*
X64650000Y-137300000D03*
X64150000Y-137300000D03*
X63650000Y-137300000D03*
X63150000Y-137300000D03*
X62650000Y-137300000D03*
X62150000Y-137300000D03*
X61650000Y-137300000D03*
X61150000Y-137300000D03*
X60650000Y-137300000D03*
D38*
X93650000Y-145250000D03*
X93650000Y-144750000D03*
X93650000Y-144250000D03*
X93650000Y-143750000D03*
X93650000Y-143250000D03*
X93650000Y-142750000D03*
X93650000Y-142250000D03*
X93650000Y-141750000D03*
X93650000Y-141250000D03*
X93650000Y-140750000D03*
X93650000Y-140250000D03*
X93650000Y-139750000D03*
X93650000Y-139250000D03*
X93650000Y-138750000D03*
X93650000Y-138250000D03*
X93650000Y-137750000D03*
X93650000Y-137250000D03*
X93650000Y-136750000D03*
X93650000Y-136250000D03*
X93650000Y-135750000D03*
X93650000Y-135250000D03*
X93650000Y-134750000D03*
X93650000Y-134250000D03*
X93650000Y-133750000D03*
X86150000Y-133750000D03*
X86150000Y-134250000D03*
X86150000Y-134750000D03*
X86150000Y-135250000D03*
X86150000Y-135750000D03*
X86150000Y-136250000D03*
X86150000Y-136750000D03*
X86150000Y-137250000D03*
X86150000Y-137750000D03*
X86150000Y-138250000D03*
X86150000Y-138750000D03*
X86150000Y-139250000D03*
X86150000Y-139750000D03*
X86150000Y-140250000D03*
X86150000Y-140750000D03*
X86150000Y-141250000D03*
X86150000Y-141750000D03*
X86150000Y-142250000D03*
X86150000Y-142750000D03*
X86150000Y-143250000D03*
X86150000Y-143750000D03*
X86150000Y-144250000D03*
X86150000Y-144750000D03*
X86150000Y-145250000D03*
D37*
X90750000Y-125950000D03*
X91250000Y-125950000D03*
X91750000Y-125950000D03*
X92250000Y-125950000D03*
X92750000Y-125950000D03*
X93250000Y-125950000D03*
X93750000Y-125950000D03*
X94250000Y-125950000D03*
X94750000Y-125950000D03*
X95250000Y-125950000D03*
X95750000Y-125950000D03*
X96250000Y-125950000D03*
X96750000Y-125950000D03*
X97250000Y-125950000D03*
X97750000Y-125950000D03*
X98250000Y-125950000D03*
X98750000Y-125950000D03*
X99250000Y-125950000D03*
X99750000Y-125950000D03*
X100250000Y-125950000D03*
X100750000Y-125950000D03*
X101250000Y-125950000D03*
X101750000Y-125950000D03*
X102250000Y-125950000D03*
X102250000Y-118450000D03*
X101750000Y-118450000D03*
X101250000Y-118450000D03*
X100750000Y-118450000D03*
X100250000Y-118450000D03*
X99750000Y-118450000D03*
X99250000Y-118450000D03*
X98750000Y-118450000D03*
X98250000Y-118450000D03*
X97750000Y-118450000D03*
X97250000Y-118450000D03*
X96750000Y-118450000D03*
X96250000Y-118450000D03*
X95750000Y-118450000D03*
X95250000Y-118450000D03*
X94750000Y-118450000D03*
X94250000Y-118450000D03*
X93750000Y-118450000D03*
X93250000Y-118450000D03*
X92750000Y-118450000D03*
X92250000Y-118450000D03*
X91750000Y-118450000D03*
X91250000Y-118450000D03*
X90750000Y-118450000D03*
X43450000Y-144800000D03*
X43950000Y-144800000D03*
X44450000Y-144800000D03*
X44950000Y-144800000D03*
X45450000Y-144800000D03*
X45950000Y-144800000D03*
X46450000Y-144800000D03*
X46950000Y-144800000D03*
X47450000Y-144800000D03*
X47950000Y-144800000D03*
X48450000Y-144800000D03*
X48950000Y-144800000D03*
X49450000Y-144800000D03*
X49950000Y-144800000D03*
X50450000Y-144800000D03*
X50950000Y-144800000D03*
X51450000Y-144800000D03*
X51950000Y-144800000D03*
X52450000Y-144800000D03*
X52950000Y-144800000D03*
X53450000Y-144800000D03*
X53950000Y-144800000D03*
X54450000Y-144800000D03*
X54950000Y-144800000D03*
X54950000Y-137300000D03*
X54450000Y-137300000D03*
X53950000Y-137300000D03*
X53450000Y-137300000D03*
X52950000Y-137300000D03*
X52450000Y-137300000D03*
X51950000Y-137300000D03*
X51450000Y-137300000D03*
X50950000Y-137300000D03*
X50450000Y-137300000D03*
X49950000Y-137300000D03*
X49450000Y-137300000D03*
X48950000Y-137300000D03*
X48450000Y-137300000D03*
X47950000Y-137300000D03*
X47450000Y-137300000D03*
X46950000Y-137300000D03*
X46450000Y-137300000D03*
X45950000Y-137300000D03*
X45450000Y-137300000D03*
X44950000Y-137300000D03*
X44450000Y-137300000D03*
X43950000Y-137300000D03*
X43450000Y-137300000D03*
D39*
X31662000Y-115500000D03*
X30138000Y-115500000D03*
X34487000Y-117500000D03*
X32963000Y-117500000D03*
X111612000Y-96425000D03*
X110088000Y-96425000D03*
X111612000Y-94425000D03*
X110088000Y-94425000D03*
X111612000Y-92425000D03*
X110088000Y-92425000D03*
X117663000Y-103450000D03*
X119187000Y-103450000D03*
D40*
X118425000Y-107987000D03*
X118425000Y-106463000D03*
X122325000Y-106463000D03*
X122325000Y-107987000D03*
D41*
X106384000Y-106381000D03*
X107019000Y-106381000D03*
X107679400Y-106381000D03*
X108339800Y-106381000D03*
X108974800Y-106381000D03*
X109635200Y-106381000D03*
X110295600Y-106381000D03*
X110930600Y-106381000D03*
X111591000Y-106381000D03*
X112226000Y-106381000D03*
X112886400Y-106381000D03*
X113546800Y-106381000D03*
X114181800Y-106381000D03*
X114842200Y-106381000D03*
X114842200Y-99269000D03*
X114181800Y-99269000D03*
X113572200Y-99269000D03*
X112886400Y-99269000D03*
X112226000Y-99269000D03*
X111591000Y-99269000D03*
X110930600Y-99269000D03*
X110295600Y-99269000D03*
X109635200Y-99269000D03*
X108974800Y-99269000D03*
X108339800Y-99269000D03*
X107679400Y-99269000D03*
X107019000Y-99269000D03*
X106384000Y-99269000D03*
D42*
X119050640Y-95300000D03*
X119050640Y-96097560D03*
X119050640Y-93702340D03*
X119050640Y-94502440D03*
D43*
X124549740Y-90801660D03*
X124549740Y-99798340D03*
X119050640Y-90900720D03*
X119050640Y-99798340D03*
D44*
X121550000Y-97499640D03*
X121550000Y-93100360D03*
D42*
X119050640Y-96897660D03*
D45*
X109400000Y-111650000D03*
X111600000Y-111650000D03*
X109400000Y-114950000D03*
X111600000Y-114950000D03*
D46*
X115675000Y-118500000D03*
D47*
X113135000Y-118500000D03*
D48*
X29925000Y-128200000D03*
D31*
X29925000Y-131050000D03*
X29925000Y-134050000D03*
D40*
X57825000Y-142238000D03*
X57825000Y-143762000D03*
D39*
X75988000Y-139150000D03*
X77512000Y-139150000D03*
D40*
X82900000Y-136562000D03*
X82900000Y-135038000D03*
D39*
X90562000Y-112025000D03*
X89038000Y-112025000D03*
X66662000Y-93750000D03*
X65138000Y-93750000D03*
X72612000Y-95150000D03*
X71088000Y-95150000D03*
X72612000Y-92750000D03*
X71088000Y-92750000D03*
X58913000Y-91850000D03*
X60437000Y-91850000D03*
X49913000Y-89000000D03*
X51437000Y-89000000D03*
D40*
X33425000Y-90338000D03*
X33425000Y-91862000D03*
X112150000Y-135163000D03*
X112150000Y-136687000D03*
D49*
G36*
X76730860Y-158153100D02*
X39984680Y-158153100D01*
X39984680Y-150157180D01*
X76730860Y-150157180D01*
X76730860Y-158153100D01*
X76730860Y-158153100D01*
G37*
X76730860Y-158153100D02*
X39984680Y-158153100D01*
X39984680Y-150157180D01*
X76730860Y-150157180D01*
X76730860Y-158153100D01*
G36*
X114731800Y-158153100D02*
X82984340Y-158153100D01*
X82984340Y-150157180D01*
X114731800Y-150157180D01*
X114731800Y-158153100D01*
X114731800Y-158153100D01*
G37*
X114731800Y-158153100D02*
X82984340Y-158153100D01*
X82984340Y-150157180D01*
X114731800Y-150157180D01*
X114731800Y-158153100D01*
M02*
