G04 #@! TF.FileFunction,Legend,Top*
%FSLAX46Y46*%
G04 Gerber Fmt 4.6, Leading zero omitted, Abs format (unit mm)*
G04 Created by KiCad (PCBNEW 4.0.3-stable) date 08/31/18 19:04:58*
%MOMM*%
%LPD*%
G01*
G04 APERTURE LIST*
%ADD10C,0.152400*%
%ADD11C,0.127000*%
%ADD12C,0.381000*%
%ADD13C,0.150000*%
%ADD14C,0.177800*%
%ADD15C,0.203200*%
%ADD16C,0.398780*%
%ADD17C,0.120000*%
%ADD18C,0.002540*%
%ADD19C,0.304800*%
G04 APERTURE END LIST*
D10*
D11*
X35141667Y-121304167D02*
X35111429Y-121273929D01*
X35050953Y-121183214D01*
X35020715Y-121122738D01*
X34990477Y-121032024D01*
X34960238Y-120880833D01*
X34960238Y-120759881D01*
X34990477Y-120608690D01*
X35020715Y-120517976D01*
X35050953Y-120457500D01*
X35111429Y-120366786D01*
X35141667Y-120336548D01*
X35353333Y-121032024D02*
X35444048Y-121062262D01*
X35595238Y-121062262D01*
X35655714Y-121032024D01*
X35685952Y-121001786D01*
X35716191Y-120941310D01*
X35716191Y-120880833D01*
X35685952Y-120820357D01*
X35655714Y-120790119D01*
X35595238Y-120759881D01*
X35474286Y-120729643D01*
X35413810Y-120699405D01*
X35383571Y-120669167D01*
X35353333Y-120608690D01*
X35353333Y-120548214D01*
X35383571Y-120487738D01*
X35413810Y-120457500D01*
X35474286Y-120427262D01*
X35625476Y-120427262D01*
X35716191Y-120457500D01*
X35927857Y-120427262D02*
X36079048Y-121062262D01*
X36200000Y-120608690D01*
X36320953Y-121062262D01*
X36472143Y-120427262D01*
X36683809Y-120487738D02*
X36714047Y-120457500D01*
X36774524Y-120427262D01*
X36925714Y-120427262D01*
X36986190Y-120457500D01*
X37016428Y-120487738D01*
X37046667Y-120548214D01*
X37046667Y-120608690D01*
X37016428Y-120699405D01*
X36653571Y-121062262D01*
X37046667Y-121062262D01*
X37258333Y-121304167D02*
X37288571Y-121273929D01*
X37349048Y-121183214D01*
X37379286Y-121122738D01*
X37409524Y-121032024D01*
X37439762Y-120880833D01*
X37439762Y-120759881D01*
X37409524Y-120608690D01*
X37379286Y-120517976D01*
X37349048Y-120457500D01*
X37288571Y-120366786D01*
X37258333Y-120336548D01*
X35141667Y-123854167D02*
X35111429Y-123823929D01*
X35050953Y-123733214D01*
X35020715Y-123672738D01*
X34990477Y-123582024D01*
X34960238Y-123430833D01*
X34960238Y-123309881D01*
X34990477Y-123158690D01*
X35020715Y-123067976D01*
X35050953Y-123007500D01*
X35111429Y-122916786D01*
X35141667Y-122886548D01*
X35353333Y-123582024D02*
X35444048Y-123612262D01*
X35595238Y-123612262D01*
X35655714Y-123582024D01*
X35685952Y-123551786D01*
X35716191Y-123491310D01*
X35716191Y-123430833D01*
X35685952Y-123370357D01*
X35655714Y-123340119D01*
X35595238Y-123309881D01*
X35474286Y-123279643D01*
X35413810Y-123249405D01*
X35383571Y-123219167D01*
X35353333Y-123158690D01*
X35353333Y-123098214D01*
X35383571Y-123037738D01*
X35413810Y-123007500D01*
X35474286Y-122977262D01*
X35625476Y-122977262D01*
X35716191Y-123007500D01*
X35927857Y-122977262D02*
X36079048Y-123612262D01*
X36200000Y-123158690D01*
X36320953Y-123612262D01*
X36472143Y-122977262D01*
X37046667Y-123612262D02*
X36683809Y-123612262D01*
X36865238Y-123612262D02*
X36865238Y-122977262D01*
X36804762Y-123067976D01*
X36744286Y-123128452D01*
X36683809Y-123158690D01*
X37258333Y-123854167D02*
X37288571Y-123823929D01*
X37349048Y-123733214D01*
X37379286Y-123672738D01*
X37409524Y-123582024D01*
X37439762Y-123430833D01*
X37439762Y-123309881D01*
X37409524Y-123158690D01*
X37379286Y-123067976D01*
X37349048Y-123007500D01*
X37288571Y-122916786D01*
X37258333Y-122886548D01*
D12*
X64050000Y-82675000D02*
X64050000Y-83575000D01*
X66650000Y-82700000D02*
X66650000Y-83575000D01*
X64050000Y-82700000D02*
X66650000Y-82700000D01*
D13*
X78850000Y-133950000D02*
X77850000Y-133950000D01*
X77850000Y-132600000D02*
X78850000Y-132600000D01*
X74200000Y-119450000D02*
X74900000Y-119450000D01*
X74900000Y-120650000D02*
X74200000Y-120650000D01*
X40250000Y-145300000D02*
X39550000Y-145300000D01*
X39550000Y-144100000D02*
X40250000Y-144100000D01*
X42800000Y-123900000D02*
X42100000Y-123900000D01*
X42100000Y-122700000D02*
X42800000Y-122700000D01*
X74200000Y-130225000D02*
X74900000Y-130225000D01*
X74900000Y-131425000D02*
X74200000Y-131425000D01*
X43950000Y-131650000D02*
X43250000Y-131650000D01*
X43250000Y-130450000D02*
X43950000Y-130450000D01*
X71250000Y-109450000D02*
X71250000Y-108750000D01*
X72450000Y-108750000D02*
X72450000Y-109450000D01*
X74200000Y-126425000D02*
X74900000Y-126425000D01*
X74900000Y-127625000D02*
X74200000Y-127625000D01*
X71600000Y-132700000D02*
X72300000Y-132700000D01*
X72300000Y-133900000D02*
X71600000Y-133900000D01*
X73200000Y-109450000D02*
X73200000Y-108750000D01*
X74400000Y-108750000D02*
X74400000Y-109450000D01*
X46850000Y-134850000D02*
X46150000Y-134850000D01*
X46150000Y-133650000D02*
X46850000Y-133650000D01*
D14*
X34800200Y-102850980D02*
X35300580Y-102850980D01*
X34800200Y-92249020D02*
X35300580Y-92249020D01*
X57002340Y-92249020D02*
X56501960Y-92249020D01*
X57002340Y-102850980D02*
X56501960Y-102850980D01*
X35552040Y-100648800D02*
X34851000Y-100648800D01*
X34851000Y-100498940D02*
X35651100Y-100498940D01*
X35701900Y-100349080D02*
X34851000Y-100349080D01*
X34802740Y-100199220D02*
X35752700Y-100199220D01*
X35752700Y-99950300D02*
X34851000Y-99950300D01*
X34851000Y-99851240D02*
X35701900Y-99851240D01*
X35701900Y-99749640D02*
X34851000Y-99749640D01*
X34802740Y-99599780D02*
X35651100Y-99599780D01*
X35602840Y-99449920D02*
X34851000Y-99449920D01*
X35501240Y-99300060D02*
X34802740Y-99300060D01*
X35552040Y-100750400D02*
X34802740Y-100750400D01*
X56951540Y-100699600D02*
X56301300Y-100699600D01*
X56151440Y-100600540D02*
X56999800Y-100600540D01*
X56951540Y-100450680D02*
X56151440Y-100450680D01*
X56049840Y-100349080D02*
X56951540Y-100349080D01*
X56999800Y-100199220D02*
X56049840Y-100199220D01*
X56999800Y-99899500D02*
X56049840Y-99899500D01*
X56999800Y-99800440D02*
X56049840Y-99800440D01*
X56999800Y-99650580D02*
X56100640Y-99650580D01*
X56999800Y-99500720D02*
X56151440Y-99500720D01*
X56250500Y-99350860D02*
X56999800Y-99350860D01*
X56301300Y-100801200D02*
X56999800Y-100801200D01*
X56247960Y-99350860D02*
G75*
G03X56301300Y-100801200I751840J-698500D01*
G01*
X35552040Y-100747860D02*
G75*
G03X35501240Y-99300060I-749300J698500D01*
G01*
X34802740Y-100049360D02*
X35800960Y-100049360D01*
X56999800Y-100049360D02*
X56001580Y-100049360D01*
X56608720Y-93478380D02*
G75*
G03X56608720Y-93478380I-563960J0D01*
G01*
X57002340Y-102850980D02*
X57002340Y-92249020D01*
X34800200Y-102850980D02*
X34800200Y-92249020D01*
D13*
X43200000Y-117550000D02*
X42500000Y-117550000D01*
X42500000Y-116350000D02*
X43200000Y-116350000D01*
X121606000Y-136926000D02*
X121606000Y-133878000D01*
X121606000Y-133878000D02*
X114494000Y-133878000D01*
X114494000Y-133878000D02*
X114494000Y-136926000D01*
X121606000Y-139974000D02*
X121606000Y-140736000D01*
X121606000Y-140736000D02*
X120082000Y-143022000D01*
X120082000Y-143022000D02*
X116018000Y-143022000D01*
X116018000Y-143022000D02*
X114494000Y-140736000D01*
X114494000Y-140736000D02*
X114494000Y-139974000D01*
D15*
X59000000Y-88740000D02*
X71700000Y-88740000D01*
X71700000Y-88740000D02*
X71700000Y-83660000D01*
X71700000Y-83660000D02*
X59000000Y-83660000D01*
X59000000Y-83660000D02*
X59000000Y-88740000D01*
X76599900Y-106100180D02*
X103600100Y-106100180D01*
X76599900Y-97100960D02*
X103650900Y-97100960D01*
D16*
X100049180Y-83301140D02*
X103600100Y-83301140D01*
X80199080Y-83301140D02*
X76599900Y-83301140D01*
X76599900Y-109501240D02*
X78901140Y-109501240D01*
X78901140Y-109501240D02*
X78850340Y-109450440D01*
X102098960Y-109501240D02*
X103600100Y-109501240D01*
X78901140Y-109450440D02*
X78901140Y-107349860D01*
X78901140Y-107349860D02*
X102098960Y-107349860D01*
X102098960Y-107349860D02*
X102098960Y-109501240D01*
X103600100Y-109501240D02*
X103600100Y-81500280D01*
X103600100Y-81500280D02*
X76599900Y-81500280D01*
X76599900Y-81500280D02*
X76599900Y-109501240D01*
D12*
X80214320Y-83293520D02*
G75*
G03X90115240Y-93194440I9900920J0D01*
G01*
X90115240Y-93194440D02*
G75*
G03X100016160Y-83293520I0J9900920D01*
G01*
D13*
X74470000Y-104130000D02*
X74470000Y-96510000D01*
X71930000Y-104130000D02*
X71930000Y-96510000D01*
X71650000Y-106950000D02*
X71650000Y-105400000D01*
X74470000Y-96510000D02*
X71930000Y-96510000D01*
X71930000Y-104130000D02*
X74470000Y-104130000D01*
X74750000Y-105400000D02*
X74750000Y-106950000D01*
X74750000Y-106950000D02*
X71650000Y-106950000D01*
X32349000Y-95186000D02*
X32349000Y-95386000D01*
X32349000Y-97780000D02*
X32349000Y-97600000D01*
X29121256Y-97469643D02*
G75*
G03X32349000Y-97786000I1727744J1003643D01*
G01*
X29796994Y-97599068D02*
G75*
G03X31900000Y-97600000I1052006J1133068D01*
G01*
X32336220Y-95159274D02*
G75*
G03X29099000Y-95506000I-1497220J-1306726D01*
G01*
X31862889Y-95386747D02*
G75*
G03X29815000Y-95406000I-1013889J-1079253D01*
G01*
X32349000Y-101236000D02*
X32349000Y-101436000D01*
X32349000Y-103830000D02*
X32349000Y-103650000D01*
X29121256Y-103519643D02*
G75*
G03X32349000Y-103836000I1727744J1003643D01*
G01*
X29796994Y-103649068D02*
G75*
G03X31900000Y-103650000I1052006J1133068D01*
G01*
X32336220Y-101209274D02*
G75*
G03X29099000Y-101556000I-1497220J-1306726D01*
G01*
X31862889Y-101436747D02*
G75*
G03X29815000Y-101456000I-1013889J-1079253D01*
G01*
X123525000Y-123425000D02*
X123525000Y-124975000D01*
X121975000Y-124975000D02*
X123525000Y-124975000D01*
X123245000Y-122155000D02*
X120705000Y-122155000D01*
X120705000Y-122155000D02*
X120705000Y-124695000D01*
X120705000Y-124695000D02*
X118165000Y-124695000D01*
X118165000Y-124695000D02*
X118165000Y-119615000D01*
X118165000Y-119615000D02*
X123245000Y-119615000D01*
X123245000Y-119615000D02*
X123245000Y-122155000D01*
X121050000Y-130525000D02*
X119050000Y-130525000D01*
X119050000Y-132575000D02*
X121050000Y-132575000D01*
X30375000Y-113400000D02*
X33075000Y-113400000D01*
X30375000Y-111900000D02*
X33075000Y-111900000D01*
X31875000Y-112800000D02*
X31875000Y-112550000D01*
X31875000Y-112550000D02*
X31725000Y-112700000D01*
X31625000Y-112300000D02*
X31625000Y-113000000D01*
X31975000Y-112650000D02*
X32325000Y-112650000D01*
X31625000Y-112650000D02*
X31975000Y-112300000D01*
X31975000Y-112300000D02*
X31975000Y-113000000D01*
X31975000Y-113000000D02*
X31625000Y-112650000D01*
X34500000Y-123375000D02*
X34500000Y-124925000D01*
X32950000Y-124925000D02*
X34500000Y-124925000D01*
X34220000Y-122105000D02*
X31680000Y-122105000D01*
X31680000Y-122105000D02*
X31680000Y-124645000D01*
X31680000Y-124645000D02*
X29140000Y-124645000D01*
X29140000Y-124645000D02*
X29140000Y-119565000D01*
X29140000Y-119565000D02*
X34220000Y-119565000D01*
X34220000Y-119565000D02*
X34220000Y-122105000D01*
X54100000Y-130950000D02*
X53600000Y-128950000D01*
X54600000Y-128950000D02*
X54100000Y-130950000D01*
X54400000Y-129750000D02*
X53850000Y-129750000D01*
X56300000Y-129950000D02*
X55100000Y-128950000D01*
X56500000Y-130950000D02*
X55000000Y-130950000D01*
X55000000Y-130950000D02*
X55000000Y-129950000D01*
X55000000Y-129950000D02*
X56500000Y-129950000D01*
X56500000Y-130950000D02*
X56500000Y-128950000D01*
X58400000Y-129950000D02*
X57400000Y-129950000D01*
X58400000Y-130950000D02*
X56900000Y-130950000D01*
X58400000Y-130950000D02*
X58400000Y-128950000D01*
X58400000Y-128950000D02*
X56900000Y-128950000D01*
X59500000Y-130950000D02*
X59500000Y-128950000D01*
X60200000Y-130950000D02*
X58800000Y-130950000D01*
X61800000Y-130950000D02*
X61800000Y-128950000D01*
X61800000Y-128950000D02*
X60800000Y-128950000D01*
X63200000Y-129750000D02*
X62650000Y-129750000D01*
X63400000Y-128950000D02*
X62900000Y-130950000D01*
X62900000Y-130950000D02*
X62400000Y-128950000D01*
D15*
X67699220Y-132299980D02*
X49700780Y-132299980D01*
X68699980Y-113300780D02*
X68699980Y-131299220D01*
X49700780Y-112300020D02*
X67699220Y-112300020D01*
X48700020Y-131299220D02*
X48700020Y-113300780D01*
X69508911Y-132548900D02*
G75*
G03X69508911Y-132548900I-560011J0D01*
G01*
X67699220Y-132299980D02*
X68699980Y-131299220D01*
X68699980Y-112300020D02*
X67699220Y-112300020D01*
X68699980Y-112300020D02*
X68699980Y-113300780D01*
X48700020Y-112300020D02*
X49700780Y-112300020D01*
X48700020Y-112300020D02*
X48700020Y-113300780D01*
X48700020Y-132299980D02*
X49700780Y-132299980D01*
X48700020Y-132299980D02*
X48700020Y-131299220D01*
D13*
X60025000Y-144225000D02*
X60200000Y-144225000D01*
X60025000Y-137875000D02*
X60282500Y-137875000D01*
X72775000Y-137875000D02*
X72517500Y-137875000D01*
X72775000Y-144225000D02*
X72517500Y-144225000D01*
X60025000Y-144225000D02*
X60025000Y-137875000D01*
X72775000Y-144225000D02*
X72775000Y-137875000D01*
X60200000Y-144225000D02*
X60200000Y-145300000D01*
X93075000Y-145875000D02*
X93075000Y-145700000D01*
X86725000Y-145875000D02*
X86725000Y-145617500D01*
X86725000Y-133125000D02*
X86725000Y-133382500D01*
X93075000Y-133125000D02*
X93075000Y-133382500D01*
X93075000Y-145875000D02*
X86725000Y-145875000D01*
X93075000Y-133125000D02*
X86725000Y-133125000D01*
X93075000Y-145700000D02*
X94150000Y-145700000D01*
X90125000Y-125375000D02*
X90300000Y-125375000D01*
X90125000Y-119025000D02*
X90382500Y-119025000D01*
X102875000Y-119025000D02*
X102617500Y-119025000D01*
X102875000Y-125375000D02*
X102617500Y-125375000D01*
X90125000Y-125375000D02*
X90125000Y-119025000D01*
X102875000Y-125375000D02*
X102875000Y-119025000D01*
X90300000Y-125375000D02*
X90300000Y-126450000D01*
X42825000Y-144225000D02*
X43000000Y-144225000D01*
X42825000Y-137875000D02*
X43082500Y-137875000D01*
X55575000Y-137875000D02*
X55317500Y-137875000D01*
X55575000Y-144225000D02*
X55317500Y-144225000D01*
X42825000Y-144225000D02*
X42825000Y-137875000D01*
X55575000Y-144225000D02*
X55575000Y-137875000D01*
X43000000Y-144225000D02*
X43000000Y-145300000D01*
D11*
X32043000Y-116135000D02*
X29757000Y-116135000D01*
X29757000Y-116135000D02*
X29757000Y-114865000D01*
X29757000Y-114865000D02*
X32043000Y-114865000D01*
X32043000Y-114865000D02*
X32043000Y-116135000D01*
X34868000Y-118135000D02*
X32582000Y-118135000D01*
X32582000Y-118135000D02*
X32582000Y-116865000D01*
X32582000Y-116865000D02*
X34868000Y-116865000D01*
X34868000Y-116865000D02*
X34868000Y-118135000D01*
X111993000Y-97060000D02*
X109707000Y-97060000D01*
X109707000Y-97060000D02*
X109707000Y-95790000D01*
X109707000Y-95790000D02*
X111993000Y-95790000D01*
X111993000Y-95790000D02*
X111993000Y-97060000D01*
X111993000Y-95060000D02*
X109707000Y-95060000D01*
X109707000Y-95060000D02*
X109707000Y-93790000D01*
X109707000Y-93790000D02*
X111993000Y-93790000D01*
X111993000Y-93790000D02*
X111993000Y-95060000D01*
X111993000Y-93060000D02*
X109707000Y-93060000D01*
X109707000Y-93060000D02*
X109707000Y-91790000D01*
X109707000Y-91790000D02*
X111993000Y-91790000D01*
X111993000Y-91790000D02*
X111993000Y-93060000D01*
X117282000Y-102815000D02*
X119568000Y-102815000D01*
X119568000Y-102815000D02*
X119568000Y-104085000D01*
X119568000Y-104085000D02*
X117282000Y-104085000D01*
X117282000Y-104085000D02*
X117282000Y-102815000D01*
X117790000Y-108368000D02*
X117790000Y-106082000D01*
X117790000Y-106082000D02*
X119060000Y-106082000D01*
X119060000Y-106082000D02*
X119060000Y-108368000D01*
X119060000Y-108368000D02*
X117790000Y-108368000D01*
X122960000Y-106082000D02*
X122960000Y-108368000D01*
X122960000Y-108368000D02*
X121690000Y-108368000D01*
X121690000Y-108368000D02*
X121690000Y-106082000D01*
X121690000Y-106082000D02*
X122960000Y-106082000D01*
X106362210Y-104984000D02*
G75*
G03X106362210Y-104984000I-359210J0D01*
G01*
X105495000Y-102190000D02*
X106257000Y-102190000D01*
X106257000Y-102190000D02*
X106257000Y-103460000D01*
X106257000Y-103460000D02*
X105495000Y-103460000D01*
X115782000Y-105492000D02*
X105495000Y-105492000D01*
X105495000Y-100158000D02*
X115782000Y-100158000D01*
X105495000Y-100158000D02*
X105495000Y-105492000D01*
X115782000Y-100158000D02*
X115782000Y-105492000D01*
X127498680Y-99148100D02*
X127498680Y-91451900D01*
X127498680Y-99148100D02*
X118250540Y-99148100D01*
X118250540Y-99148100D02*
X118250540Y-91451900D01*
X118250540Y-91451900D02*
X127498680Y-91451900D01*
X126162640Y-96570000D02*
X122987640Y-95935000D01*
X122987640Y-95935000D02*
X122987640Y-94665000D01*
X122987640Y-94665000D02*
X126162640Y-94030000D01*
X123622640Y-92125000D02*
X126162640Y-92442500D01*
X126162640Y-92442500D02*
X126162640Y-93077500D01*
X126162640Y-93077500D02*
X123622640Y-93395000D01*
X123622640Y-98475000D02*
X126162640Y-98157500D01*
X126162640Y-98157500D02*
X126162640Y-97522500D01*
X126162640Y-97522500D02*
X123622640Y-97205000D01*
D17*
X112300000Y-112350000D02*
X112300000Y-110950000D01*
X112300000Y-110950000D02*
X109500000Y-110950000D01*
X112300000Y-112350000D02*
X109500000Y-112350000D01*
X112300000Y-115650000D02*
X112300000Y-114250000D01*
X112300000Y-114250000D02*
X109500000Y-114250000D01*
X112300000Y-115650000D02*
X109500000Y-115650000D01*
X111805000Y-117170000D02*
X111805000Y-119830000D01*
X114405000Y-117170000D02*
X111805000Y-117170000D01*
X114405000Y-119830000D02*
X111805000Y-119830000D01*
X114405000Y-117170000D02*
X114405000Y-119830000D01*
X115675000Y-117170000D02*
X117005000Y-117170000D01*
X117005000Y-117170000D02*
X117005000Y-118500000D01*
D13*
X31625000Y-126650000D02*
X31625000Y-135450000D01*
X31625000Y-135450000D02*
X28225000Y-135450000D01*
X28225000Y-135450000D02*
X28225000Y-126650000D01*
X28225000Y-126650000D02*
X31625000Y-126650000D01*
D11*
X58460000Y-141857000D02*
X58460000Y-144143000D01*
X58460000Y-144143000D02*
X57190000Y-144143000D01*
X57190000Y-144143000D02*
X57190000Y-141857000D01*
X57190000Y-141857000D02*
X58460000Y-141857000D01*
X75607000Y-138515000D02*
X77893000Y-138515000D01*
X77893000Y-138515000D02*
X77893000Y-139785000D01*
X77893000Y-139785000D02*
X75607000Y-139785000D01*
X75607000Y-139785000D02*
X75607000Y-138515000D01*
X82265000Y-136943000D02*
X82265000Y-134657000D01*
X82265000Y-134657000D02*
X83535000Y-134657000D01*
X83535000Y-134657000D02*
X83535000Y-136943000D01*
X83535000Y-136943000D02*
X82265000Y-136943000D01*
X90943000Y-112660000D02*
X88657000Y-112660000D01*
X88657000Y-112660000D02*
X88657000Y-111390000D01*
X88657000Y-111390000D02*
X90943000Y-111390000D01*
X90943000Y-111390000D02*
X90943000Y-112660000D01*
X67043000Y-94385000D02*
X64757000Y-94385000D01*
X64757000Y-94385000D02*
X64757000Y-93115000D01*
X64757000Y-93115000D02*
X67043000Y-93115000D01*
X67043000Y-93115000D02*
X67043000Y-94385000D01*
X72993000Y-95785000D02*
X70707000Y-95785000D01*
X70707000Y-95785000D02*
X70707000Y-94515000D01*
X70707000Y-94515000D02*
X72993000Y-94515000D01*
X72993000Y-94515000D02*
X72993000Y-95785000D01*
X72993000Y-93385000D02*
X70707000Y-93385000D01*
X70707000Y-93385000D02*
X70707000Y-92115000D01*
X70707000Y-92115000D02*
X72993000Y-92115000D01*
X72993000Y-92115000D02*
X72993000Y-93385000D01*
D18*
G36*
X33356180Y-86315820D02*
X33323160Y-86379320D01*
X33208860Y-86419960D01*
X32977720Y-86437740D01*
X32678000Y-86442820D01*
X32594180Y-86442820D01*
X32594180Y-86188820D01*
X32594180Y-84624180D01*
X32591640Y-84073000D01*
X32589100Y-83666600D01*
X32576400Y-83377040D01*
X32558620Y-83181460D01*
X32525600Y-83051920D01*
X32479880Y-82965560D01*
X32416380Y-82896980D01*
X32408760Y-82889360D01*
X32093800Y-82698860D01*
X31674700Y-82582020D01*
X31199720Y-82543920D01*
X30712040Y-82576940D01*
X30259920Y-82683620D01*
X29889080Y-82861420D01*
X29782400Y-82945240D01*
X29726520Y-83008740D01*
X29688420Y-83107800D01*
X29660480Y-83262740D01*
X29642700Y-83501500D01*
X29635080Y-83849480D01*
X29630000Y-84327000D01*
X29630000Y-84634340D01*
X29630000Y-86188820D01*
X29843360Y-86188820D01*
X30054180Y-86188820D01*
X30054180Y-84708000D01*
X30054180Y-84146660D01*
X30061800Y-83737720D01*
X30084660Y-83460860D01*
X30125300Y-83295760D01*
X30196420Y-83227180D01*
X30300560Y-83232260D01*
X30447880Y-83293220D01*
X30564720Y-83354180D01*
X30800940Y-83521820D01*
X30940640Y-83709780D01*
X30966040Y-83882500D01*
X30866980Y-84006960D01*
X30816180Y-84029820D01*
X30745060Y-84062840D01*
X30696800Y-84131420D01*
X30668860Y-84263500D01*
X30653620Y-84487020D01*
X30646000Y-84832460D01*
X30646000Y-85134720D01*
X30646000Y-86188820D01*
X31029540Y-86188820D01*
X31413080Y-86188820D01*
X31240360Y-85853540D01*
X31141300Y-85602080D01*
X31087960Y-85299820D01*
X31070180Y-84890880D01*
X31070180Y-84837540D01*
X31077800Y-84522580D01*
X31100660Y-84283820D01*
X31131140Y-84164440D01*
X31141300Y-84156820D01*
X31222580Y-84088240D01*
X31314020Y-83930760D01*
X31357200Y-83719940D01*
X31263220Y-83590400D01*
X31146380Y-83565000D01*
X31052400Y-83514200D01*
X30900000Y-83394820D01*
X30704420Y-83224640D01*
X31395300Y-83224640D01*
X32086180Y-83224640D01*
X32086180Y-84708000D01*
X32086180Y-86188820D01*
X32340180Y-86188820D01*
X32594180Y-86188820D01*
X32594180Y-86442820D01*
X32002360Y-86442820D01*
X32002360Y-88728820D01*
X32002360Y-91014820D01*
X31789000Y-91014820D01*
X31578180Y-91014820D01*
X31578180Y-88728820D01*
X31578180Y-86442820D01*
X31070180Y-86442820D01*
X30562180Y-86442820D01*
X30562180Y-89574640D01*
X30562180Y-92709000D01*
X30351360Y-92709000D01*
X30138000Y-92709000D01*
X30138000Y-89574640D01*
X30138000Y-86442820D01*
X29376000Y-86442820D01*
X29005160Y-86437740D01*
X28774020Y-86419960D01*
X28652100Y-86384400D01*
X28614000Y-86323440D01*
X28614000Y-86315820D01*
X28659720Y-86234540D01*
X28817200Y-86196440D01*
X29038180Y-86188820D01*
X29462360Y-86188820D01*
X29462360Y-84636880D01*
X29462360Y-84088240D01*
X29467440Y-83679300D01*
X29477600Y-83389740D01*
X29500460Y-83194160D01*
X29530940Y-83062080D01*
X29579200Y-82968100D01*
X29642700Y-82891900D01*
X29993220Y-82630280D01*
X30445340Y-82457560D01*
X30953340Y-82376280D01*
X31476580Y-82386440D01*
X31974420Y-82488040D01*
X32398600Y-82686160D01*
X32571320Y-82820780D01*
X32637360Y-82889360D01*
X32688160Y-82970640D01*
X32721180Y-83087480D01*
X32744040Y-83267820D01*
X32756740Y-83531980D01*
X32761820Y-83910440D01*
X32761820Y-84426060D01*
X32764360Y-84593700D01*
X32764360Y-86188820D01*
X33059000Y-86188820D01*
X33277440Y-86216760D01*
X33356180Y-86303120D01*
X33356180Y-86315820D01*
X33356180Y-86315820D01*
X33356180Y-86315820D01*
G37*
X33356180Y-86315820D02*
X33323160Y-86379320D01*
X33208860Y-86419960D01*
X32977720Y-86437740D01*
X32678000Y-86442820D01*
X32594180Y-86442820D01*
X32594180Y-86188820D01*
X32594180Y-84624180D01*
X32591640Y-84073000D01*
X32589100Y-83666600D01*
X32576400Y-83377040D01*
X32558620Y-83181460D01*
X32525600Y-83051920D01*
X32479880Y-82965560D01*
X32416380Y-82896980D01*
X32408760Y-82889360D01*
X32093800Y-82698860D01*
X31674700Y-82582020D01*
X31199720Y-82543920D01*
X30712040Y-82576940D01*
X30259920Y-82683620D01*
X29889080Y-82861420D01*
X29782400Y-82945240D01*
X29726520Y-83008740D01*
X29688420Y-83107800D01*
X29660480Y-83262740D01*
X29642700Y-83501500D01*
X29635080Y-83849480D01*
X29630000Y-84327000D01*
X29630000Y-84634340D01*
X29630000Y-86188820D01*
X29843360Y-86188820D01*
X30054180Y-86188820D01*
X30054180Y-84708000D01*
X30054180Y-84146660D01*
X30061800Y-83737720D01*
X30084660Y-83460860D01*
X30125300Y-83295760D01*
X30196420Y-83227180D01*
X30300560Y-83232260D01*
X30447880Y-83293220D01*
X30564720Y-83354180D01*
X30800940Y-83521820D01*
X30940640Y-83709780D01*
X30966040Y-83882500D01*
X30866980Y-84006960D01*
X30816180Y-84029820D01*
X30745060Y-84062840D01*
X30696800Y-84131420D01*
X30668860Y-84263500D01*
X30653620Y-84487020D01*
X30646000Y-84832460D01*
X30646000Y-85134720D01*
X30646000Y-86188820D01*
X31029540Y-86188820D01*
X31413080Y-86188820D01*
X31240360Y-85853540D01*
X31141300Y-85602080D01*
X31087960Y-85299820D01*
X31070180Y-84890880D01*
X31070180Y-84837540D01*
X31077800Y-84522580D01*
X31100660Y-84283820D01*
X31131140Y-84164440D01*
X31141300Y-84156820D01*
X31222580Y-84088240D01*
X31314020Y-83930760D01*
X31357200Y-83719940D01*
X31263220Y-83590400D01*
X31146380Y-83565000D01*
X31052400Y-83514200D01*
X30900000Y-83394820D01*
X30704420Y-83224640D01*
X31395300Y-83224640D01*
X32086180Y-83224640D01*
X32086180Y-84708000D01*
X32086180Y-86188820D01*
X32340180Y-86188820D01*
X32594180Y-86188820D01*
X32594180Y-86442820D01*
X32002360Y-86442820D01*
X32002360Y-88728820D01*
X32002360Y-91014820D01*
X31789000Y-91014820D01*
X31578180Y-91014820D01*
X31578180Y-88728820D01*
X31578180Y-86442820D01*
X31070180Y-86442820D01*
X30562180Y-86442820D01*
X30562180Y-89574640D01*
X30562180Y-92709000D01*
X30351360Y-92709000D01*
X30138000Y-92709000D01*
X30138000Y-89574640D01*
X30138000Y-86442820D01*
X29376000Y-86442820D01*
X29005160Y-86437740D01*
X28774020Y-86419960D01*
X28652100Y-86384400D01*
X28614000Y-86323440D01*
X28614000Y-86315820D01*
X28659720Y-86234540D01*
X28817200Y-86196440D01*
X29038180Y-86188820D01*
X29462360Y-86188820D01*
X29462360Y-84636880D01*
X29462360Y-84088240D01*
X29467440Y-83679300D01*
X29477600Y-83389740D01*
X29500460Y-83194160D01*
X29530940Y-83062080D01*
X29579200Y-82968100D01*
X29642700Y-82891900D01*
X29993220Y-82630280D01*
X30445340Y-82457560D01*
X30953340Y-82376280D01*
X31476580Y-82386440D01*
X31974420Y-82488040D01*
X32398600Y-82686160D01*
X32571320Y-82820780D01*
X32637360Y-82889360D01*
X32688160Y-82970640D01*
X32721180Y-83087480D01*
X32744040Y-83267820D01*
X32756740Y-83531980D01*
X32761820Y-83910440D01*
X32761820Y-84426060D01*
X32764360Y-84593700D01*
X32764360Y-86188820D01*
X33059000Y-86188820D01*
X33277440Y-86216760D01*
X33356180Y-86303120D01*
X33356180Y-86315820D01*
X33356180Y-86315820D01*
G36*
X29546180Y-87585820D02*
X29482680Y-87679800D01*
X29276940Y-87712820D01*
X29249000Y-87712820D01*
X29050880Y-87725520D01*
X28969600Y-87799180D01*
X28954360Y-87987140D01*
X28954360Y-88010000D01*
X28926420Y-88228440D01*
X28837520Y-88304640D01*
X28827360Y-88304640D01*
X28733380Y-88241140D01*
X28700360Y-88035400D01*
X28700360Y-88010000D01*
X28685120Y-87809340D01*
X28611460Y-87728060D01*
X28426040Y-87712820D01*
X28403180Y-87712820D01*
X28184740Y-87684880D01*
X28106000Y-87595980D01*
X28106000Y-87585820D01*
X28169500Y-87491840D01*
X28375240Y-87458820D01*
X28403180Y-87458820D01*
X28601300Y-87443580D01*
X28682580Y-87372460D01*
X28700360Y-87204820D01*
X28735920Y-87001620D01*
X28827360Y-86950820D01*
X28926420Y-87027020D01*
X28954360Y-87204820D01*
X28969600Y-87375000D01*
X29053420Y-87446120D01*
X29249000Y-87458820D01*
X29467440Y-87486760D01*
X29546180Y-87573120D01*
X29546180Y-87585820D01*
X29546180Y-87585820D01*
X29546180Y-87585820D01*
G37*
X29546180Y-87585820D02*
X29482680Y-87679800D01*
X29276940Y-87712820D01*
X29249000Y-87712820D01*
X29050880Y-87725520D01*
X28969600Y-87799180D01*
X28954360Y-87987140D01*
X28954360Y-88010000D01*
X28926420Y-88228440D01*
X28837520Y-88304640D01*
X28827360Y-88304640D01*
X28733380Y-88241140D01*
X28700360Y-88035400D01*
X28700360Y-88010000D01*
X28685120Y-87809340D01*
X28611460Y-87728060D01*
X28426040Y-87712820D01*
X28403180Y-87712820D01*
X28184740Y-87684880D01*
X28106000Y-87595980D01*
X28106000Y-87585820D01*
X28169500Y-87491840D01*
X28375240Y-87458820D01*
X28403180Y-87458820D01*
X28601300Y-87443580D01*
X28682580Y-87372460D01*
X28700360Y-87204820D01*
X28735920Y-87001620D01*
X28827360Y-86950820D01*
X28926420Y-87027020D01*
X28954360Y-87204820D01*
X28969600Y-87375000D01*
X29053420Y-87446120D01*
X29249000Y-87458820D01*
X29467440Y-87486760D01*
X29546180Y-87573120D01*
X29546180Y-87585820D01*
X29546180Y-87585820D01*
G36*
X34372180Y-87585820D02*
X34341700Y-87649320D01*
X34229940Y-87687420D01*
X34006420Y-87707740D01*
X33653360Y-87712820D01*
X33292680Y-87707740D01*
X33071700Y-87687420D01*
X32962480Y-87646780D01*
X32932000Y-87585820D01*
X32962480Y-87522320D01*
X33074240Y-87484220D01*
X33297760Y-87463900D01*
X33653360Y-87458820D01*
X34011500Y-87463900D01*
X34232480Y-87484220D01*
X34341700Y-87522320D01*
X34372180Y-87585820D01*
X34372180Y-87585820D01*
X34372180Y-87585820D01*
G37*
X34372180Y-87585820D02*
X34341700Y-87649320D01*
X34229940Y-87687420D01*
X34006420Y-87707740D01*
X33653360Y-87712820D01*
X33292680Y-87707740D01*
X33071700Y-87687420D01*
X32962480Y-87646780D01*
X32932000Y-87585820D01*
X32962480Y-87522320D01*
X33074240Y-87484220D01*
X33297760Y-87463900D01*
X33653360Y-87458820D01*
X34011500Y-87463900D01*
X34232480Y-87484220D01*
X34341700Y-87522320D01*
X34372180Y-87585820D01*
X34372180Y-87585820D01*
D11*
X58532000Y-91215000D02*
X60818000Y-91215000D01*
X60818000Y-91215000D02*
X60818000Y-92485000D01*
X60818000Y-92485000D02*
X58532000Y-92485000D01*
X58532000Y-92485000D02*
X58532000Y-91215000D01*
X49532000Y-88365000D02*
X51818000Y-88365000D01*
X51818000Y-88365000D02*
X51818000Y-89635000D01*
X51818000Y-89635000D02*
X49532000Y-89635000D01*
X49532000Y-89635000D02*
X49532000Y-88365000D01*
X34060000Y-89957000D02*
X34060000Y-92243000D01*
X34060000Y-92243000D02*
X32790000Y-92243000D01*
X32790000Y-92243000D02*
X32790000Y-89957000D01*
X32790000Y-89957000D02*
X34060000Y-89957000D01*
X112785000Y-134782000D02*
X112785000Y-137068000D01*
X112785000Y-137068000D02*
X111515000Y-137068000D01*
X111515000Y-137068000D02*
X111515000Y-134782000D01*
X111515000Y-134782000D02*
X112785000Y-134782000D01*
X76741786Y-134987262D02*
X76530119Y-134684881D01*
X76378928Y-134987262D02*
X76378928Y-134352262D01*
X76620833Y-134352262D01*
X76681309Y-134382500D01*
X76711548Y-134412738D01*
X76741786Y-134473214D01*
X76741786Y-134563929D01*
X76711548Y-134624405D01*
X76681309Y-134654643D01*
X76620833Y-134684881D01*
X76378928Y-134684881D01*
X77346548Y-134987262D02*
X76983690Y-134987262D01*
X77165119Y-134987262D02*
X77165119Y-134352262D01*
X77104643Y-134442976D01*
X77044167Y-134503452D01*
X76983690Y-134533690D01*
X77558214Y-134352262D02*
X77951310Y-134352262D01*
X77739643Y-134594167D01*
X77830357Y-134594167D01*
X77890833Y-134624405D01*
X77921071Y-134654643D01*
X77951310Y-134715119D01*
X77951310Y-134866310D01*
X77921071Y-134926786D01*
X77890833Y-134957024D01*
X77830357Y-134987262D01*
X77648929Y-134987262D01*
X77588452Y-134957024D01*
X77558214Y-134926786D01*
X78986548Y-135012262D02*
X78623690Y-135012262D01*
X78805119Y-135012262D02*
X78805119Y-134377262D01*
X78744643Y-134467976D01*
X78684167Y-134528452D01*
X78623690Y-134558690D01*
X79379643Y-134377262D02*
X79440119Y-134377262D01*
X79500595Y-134407500D01*
X79530833Y-134437738D01*
X79561071Y-134498214D01*
X79591310Y-134619167D01*
X79591310Y-134770357D01*
X79561071Y-134891310D01*
X79530833Y-134951786D01*
X79500595Y-134982024D01*
X79440119Y-135012262D01*
X79379643Y-135012262D01*
X79319167Y-134982024D01*
X79288929Y-134951786D01*
X79258690Y-134891310D01*
X79228452Y-134770357D01*
X79228452Y-134619167D01*
X79258690Y-134498214D01*
X79288929Y-134437738D01*
X79319167Y-134407500D01*
X79379643Y-134377262D01*
X79863452Y-135012262D02*
X79863452Y-134377262D01*
X80226310Y-135012262D02*
X79954167Y-134649405D01*
X80226310Y-134377262D02*
X79863452Y-134740119D01*
X74141786Y-121551786D02*
X74111548Y-121582024D01*
X74020833Y-121612262D01*
X73960357Y-121612262D01*
X73869643Y-121582024D01*
X73809167Y-121521548D01*
X73778928Y-121461071D01*
X73748690Y-121340119D01*
X73748690Y-121249405D01*
X73778928Y-121128452D01*
X73809167Y-121067976D01*
X73869643Y-121007500D01*
X73960357Y-120977262D01*
X74020833Y-120977262D01*
X74111548Y-121007500D01*
X74141786Y-121037738D01*
X74353452Y-120977262D02*
X74746548Y-120977262D01*
X74534881Y-121219167D01*
X74625595Y-121219167D01*
X74686071Y-121249405D01*
X74716309Y-121279643D01*
X74746548Y-121340119D01*
X74746548Y-121491310D01*
X74716309Y-121551786D01*
X74686071Y-121582024D01*
X74625595Y-121612262D01*
X74444167Y-121612262D01*
X74383690Y-121582024D01*
X74353452Y-121551786D01*
X75139643Y-120977262D02*
X75200119Y-120977262D01*
X75260595Y-121007500D01*
X75290833Y-121037738D01*
X75321071Y-121098214D01*
X75351310Y-121219167D01*
X75351310Y-121370357D01*
X75321071Y-121491310D01*
X75290833Y-121551786D01*
X75260595Y-121582024D01*
X75200119Y-121612262D01*
X75139643Y-121612262D01*
X75079167Y-121582024D01*
X75048929Y-121551786D01*
X75018690Y-121491310D01*
X74988452Y-121370357D01*
X74988452Y-121219167D01*
X75018690Y-121098214D01*
X75048929Y-121037738D01*
X75079167Y-121007500D01*
X75139643Y-120977262D01*
X39794167Y-142501786D02*
X39763929Y-142532024D01*
X39673214Y-142562262D01*
X39612738Y-142562262D01*
X39522024Y-142532024D01*
X39461548Y-142471548D01*
X39431309Y-142411071D01*
X39401071Y-142290119D01*
X39401071Y-142199405D01*
X39431309Y-142078452D01*
X39461548Y-142017976D01*
X39522024Y-141957500D01*
X39612738Y-141927262D01*
X39673214Y-141927262D01*
X39763929Y-141957500D01*
X39794167Y-141987738D01*
X40398929Y-142562262D02*
X40036071Y-142562262D01*
X40217500Y-142562262D02*
X40217500Y-141927262D01*
X40157024Y-142017976D01*
X40096548Y-142078452D01*
X40036071Y-142108690D01*
X39007976Y-143263929D02*
X39007976Y-143687262D01*
X38856786Y-143022024D02*
X38705595Y-143475595D01*
X39098691Y-143475595D01*
X39340595Y-143626786D02*
X39370834Y-143657024D01*
X39340595Y-143687262D01*
X39310357Y-143657024D01*
X39340595Y-143626786D01*
X39340595Y-143687262D01*
X39582500Y-143052262D02*
X40005834Y-143052262D01*
X39733691Y-143687262D01*
X40519881Y-143263929D02*
X40519881Y-143687262D01*
X40247738Y-143263929D02*
X40247738Y-143596548D01*
X40277977Y-143657024D01*
X40338453Y-143687262D01*
X40429167Y-143687262D01*
X40489643Y-143657024D01*
X40519881Y-143626786D01*
X41033929Y-143354643D02*
X40822262Y-143354643D01*
X40822262Y-143687262D02*
X40822262Y-143052262D01*
X41124643Y-143052262D01*
X41991786Y-122076786D02*
X41961548Y-122107024D01*
X41870833Y-122137262D01*
X41810357Y-122137262D01*
X41719643Y-122107024D01*
X41659167Y-122046548D01*
X41628928Y-121986071D01*
X41598690Y-121865119D01*
X41598690Y-121774405D01*
X41628928Y-121653452D01*
X41659167Y-121592976D01*
X41719643Y-121532500D01*
X41810357Y-121502262D01*
X41870833Y-121502262D01*
X41961548Y-121532500D01*
X41991786Y-121562738D01*
X42203452Y-121502262D02*
X42596548Y-121502262D01*
X42384881Y-121744167D01*
X42475595Y-121744167D01*
X42536071Y-121774405D01*
X42566309Y-121804643D01*
X42596548Y-121865119D01*
X42596548Y-122016310D01*
X42566309Y-122076786D01*
X42536071Y-122107024D01*
X42475595Y-122137262D01*
X42294167Y-122137262D01*
X42233690Y-122107024D01*
X42203452Y-122076786D01*
X43140833Y-121713929D02*
X43140833Y-122137262D01*
X42989643Y-121472024D02*
X42838452Y-121925595D01*
X43231548Y-121925595D01*
X74116786Y-132251786D02*
X74086548Y-132282024D01*
X73995833Y-132312262D01*
X73935357Y-132312262D01*
X73844643Y-132282024D01*
X73784167Y-132221548D01*
X73753928Y-132161071D01*
X73723690Y-132040119D01*
X73723690Y-131949405D01*
X73753928Y-131828452D01*
X73784167Y-131767976D01*
X73844643Y-131707500D01*
X73935357Y-131677262D01*
X73995833Y-131677262D01*
X74086548Y-131707500D01*
X74116786Y-131737738D01*
X74328452Y-131677262D02*
X74721548Y-131677262D01*
X74509881Y-131919167D01*
X74600595Y-131919167D01*
X74661071Y-131949405D01*
X74691309Y-131979643D01*
X74721548Y-132040119D01*
X74721548Y-132191310D01*
X74691309Y-132251786D01*
X74661071Y-132282024D01*
X74600595Y-132312262D01*
X74419167Y-132312262D01*
X74358690Y-132282024D01*
X74328452Y-132251786D01*
X75296071Y-131677262D02*
X74993690Y-131677262D01*
X74963452Y-131979643D01*
X74993690Y-131949405D01*
X75054167Y-131919167D01*
X75205357Y-131919167D01*
X75265833Y-131949405D01*
X75296071Y-131979643D01*
X75326310Y-132040119D01*
X75326310Y-132191310D01*
X75296071Y-132251786D01*
X75265833Y-132282024D01*
X75205357Y-132312262D01*
X75054167Y-132312262D01*
X74993690Y-132282024D01*
X74963452Y-132251786D01*
X43166786Y-129826786D02*
X43136548Y-129857024D01*
X43045833Y-129887262D01*
X42985357Y-129887262D01*
X42894643Y-129857024D01*
X42834167Y-129796548D01*
X42803928Y-129736071D01*
X42773690Y-129615119D01*
X42773690Y-129524405D01*
X42803928Y-129403452D01*
X42834167Y-129342976D01*
X42894643Y-129282500D01*
X42985357Y-129252262D01*
X43045833Y-129252262D01*
X43136548Y-129282500D01*
X43166786Y-129312738D01*
X43378452Y-129252262D02*
X43771548Y-129252262D01*
X43559881Y-129494167D01*
X43650595Y-129494167D01*
X43711071Y-129524405D01*
X43741309Y-129554643D01*
X43771548Y-129615119D01*
X43771548Y-129766310D01*
X43741309Y-129826786D01*
X43711071Y-129857024D01*
X43650595Y-129887262D01*
X43469167Y-129887262D01*
X43408690Y-129857024D01*
X43378452Y-129826786D01*
X44315833Y-129252262D02*
X44194881Y-129252262D01*
X44134405Y-129282500D01*
X44104167Y-129312738D01*
X44043690Y-129403452D01*
X44013452Y-129524405D01*
X44013452Y-129766310D01*
X44043690Y-129826786D01*
X44073929Y-129857024D01*
X44134405Y-129887262D01*
X44255357Y-129887262D01*
X44315833Y-129857024D01*
X44346071Y-129826786D01*
X44376310Y-129766310D01*
X44376310Y-129615119D01*
X44346071Y-129554643D01*
X44315833Y-129524405D01*
X44255357Y-129494167D01*
X44134405Y-129494167D01*
X44073929Y-129524405D01*
X44043690Y-129554643D01*
X44013452Y-129615119D01*
X69566786Y-110751786D02*
X69536548Y-110782024D01*
X69445833Y-110812262D01*
X69385357Y-110812262D01*
X69294643Y-110782024D01*
X69234167Y-110721548D01*
X69203928Y-110661071D01*
X69173690Y-110540119D01*
X69173690Y-110449405D01*
X69203928Y-110328452D01*
X69234167Y-110267976D01*
X69294643Y-110207500D01*
X69385357Y-110177262D01*
X69445833Y-110177262D01*
X69536548Y-110207500D01*
X69566786Y-110237738D01*
X69778452Y-110177262D02*
X70171548Y-110177262D01*
X69959881Y-110419167D01*
X70050595Y-110419167D01*
X70111071Y-110449405D01*
X70141309Y-110479643D01*
X70171548Y-110540119D01*
X70171548Y-110691310D01*
X70141309Y-110751786D01*
X70111071Y-110782024D01*
X70050595Y-110812262D01*
X69869167Y-110812262D01*
X69808690Y-110782024D01*
X69778452Y-110751786D01*
X70534405Y-110449405D02*
X70473929Y-110419167D01*
X70443690Y-110388929D01*
X70413452Y-110328452D01*
X70413452Y-110298214D01*
X70443690Y-110237738D01*
X70473929Y-110207500D01*
X70534405Y-110177262D01*
X70655357Y-110177262D01*
X70715833Y-110207500D01*
X70746071Y-110237738D01*
X70776310Y-110298214D01*
X70776310Y-110328452D01*
X70746071Y-110388929D01*
X70715833Y-110419167D01*
X70655357Y-110449405D01*
X70534405Y-110449405D01*
X70473929Y-110479643D01*
X70443690Y-110509881D01*
X70413452Y-110570357D01*
X70413452Y-110691310D01*
X70443690Y-110751786D01*
X70473929Y-110782024D01*
X70534405Y-110812262D01*
X70655357Y-110812262D01*
X70715833Y-110782024D01*
X70746071Y-110751786D01*
X70776310Y-110691310D01*
X70776310Y-110570357D01*
X70746071Y-110509881D01*
X70715833Y-110479643D01*
X70655357Y-110449405D01*
X74141786Y-128426786D02*
X74111548Y-128457024D01*
X74020833Y-128487262D01*
X73960357Y-128487262D01*
X73869643Y-128457024D01*
X73809167Y-128396548D01*
X73778928Y-128336071D01*
X73748690Y-128215119D01*
X73748690Y-128124405D01*
X73778928Y-128003452D01*
X73809167Y-127942976D01*
X73869643Y-127882500D01*
X73960357Y-127852262D01*
X74020833Y-127852262D01*
X74111548Y-127882500D01*
X74141786Y-127912738D01*
X74353452Y-127852262D02*
X74746548Y-127852262D01*
X74534881Y-128094167D01*
X74625595Y-128094167D01*
X74686071Y-128124405D01*
X74716309Y-128154643D01*
X74746548Y-128215119D01*
X74746548Y-128366310D01*
X74716309Y-128426786D01*
X74686071Y-128457024D01*
X74625595Y-128487262D01*
X74444167Y-128487262D01*
X74383690Y-128457024D01*
X74353452Y-128426786D01*
X75048929Y-128487262D02*
X75169881Y-128487262D01*
X75230357Y-128457024D01*
X75260595Y-128426786D01*
X75321071Y-128336071D01*
X75351310Y-128215119D01*
X75351310Y-127973214D01*
X75321071Y-127912738D01*
X75290833Y-127882500D01*
X75230357Y-127852262D01*
X75109405Y-127852262D01*
X75048929Y-127882500D01*
X75018690Y-127912738D01*
X74988452Y-127973214D01*
X74988452Y-128124405D01*
X75018690Y-128184881D01*
X75048929Y-128215119D01*
X75109405Y-128245357D01*
X75230357Y-128245357D01*
X75290833Y-128215119D01*
X75321071Y-128184881D01*
X75351310Y-128124405D01*
X71541786Y-132326786D02*
X71511548Y-132357024D01*
X71420833Y-132387262D01*
X71360357Y-132387262D01*
X71269643Y-132357024D01*
X71209167Y-132296548D01*
X71178928Y-132236071D01*
X71148690Y-132115119D01*
X71148690Y-132024405D01*
X71178928Y-131903452D01*
X71209167Y-131842976D01*
X71269643Y-131782500D01*
X71360357Y-131752262D01*
X71420833Y-131752262D01*
X71511548Y-131782500D01*
X71541786Y-131812738D01*
X72086071Y-131963929D02*
X72086071Y-132387262D01*
X71934881Y-131722024D02*
X71783690Y-132175595D01*
X72176786Y-132175595D01*
X72751310Y-132387262D02*
X72388452Y-132387262D01*
X72569881Y-132387262D02*
X72569881Y-131752262D01*
X72509405Y-131842976D01*
X72448929Y-131903452D01*
X72388452Y-131933690D01*
X75166786Y-110751786D02*
X75136548Y-110782024D01*
X75045833Y-110812262D01*
X74985357Y-110812262D01*
X74894643Y-110782024D01*
X74834167Y-110721548D01*
X74803928Y-110661071D01*
X74773690Y-110540119D01*
X74773690Y-110449405D01*
X74803928Y-110328452D01*
X74834167Y-110267976D01*
X74894643Y-110207500D01*
X74985357Y-110177262D01*
X75045833Y-110177262D01*
X75136548Y-110207500D01*
X75166786Y-110237738D01*
X75711071Y-110388929D02*
X75711071Y-110812262D01*
X75559881Y-110147024D02*
X75408690Y-110600595D01*
X75801786Y-110600595D01*
X76315833Y-110177262D02*
X76194881Y-110177262D01*
X76134405Y-110207500D01*
X76104167Y-110237738D01*
X76043690Y-110328452D01*
X76013452Y-110449405D01*
X76013452Y-110691310D01*
X76043690Y-110751786D01*
X76073929Y-110782024D01*
X76134405Y-110812262D01*
X76255357Y-110812262D01*
X76315833Y-110782024D01*
X76346071Y-110751786D01*
X76376310Y-110691310D01*
X76376310Y-110540119D01*
X76346071Y-110479643D01*
X76315833Y-110449405D01*
X76255357Y-110419167D01*
X76134405Y-110419167D01*
X76073929Y-110449405D01*
X76043690Y-110479643D01*
X76013452Y-110540119D01*
X46091786Y-135926786D02*
X46061548Y-135957024D01*
X45970833Y-135987262D01*
X45910357Y-135987262D01*
X45819643Y-135957024D01*
X45759167Y-135896548D01*
X45728928Y-135836071D01*
X45698690Y-135715119D01*
X45698690Y-135624405D01*
X45728928Y-135503452D01*
X45759167Y-135442976D01*
X45819643Y-135382500D01*
X45910357Y-135352262D01*
X45970833Y-135352262D01*
X46061548Y-135382500D01*
X46091786Y-135412738D01*
X46636071Y-135563929D02*
X46636071Y-135987262D01*
X46484881Y-135322024D02*
X46333690Y-135775595D01*
X46726786Y-135775595D01*
X46908214Y-135352262D02*
X47331548Y-135352262D01*
X47059405Y-135987262D01*
X36241190Y-104452262D02*
X36241190Y-104966310D01*
X36271429Y-105026786D01*
X36301667Y-105057024D01*
X36362143Y-105087262D01*
X36483095Y-105087262D01*
X36543571Y-105057024D01*
X36573810Y-105026786D01*
X36604048Y-104966310D01*
X36604048Y-104452262D01*
X36936667Y-105087262D02*
X37057619Y-105087262D01*
X37118095Y-105057024D01*
X37148333Y-105026786D01*
X37208809Y-104936071D01*
X37239048Y-104815119D01*
X37239048Y-104573214D01*
X37208809Y-104512738D01*
X37178571Y-104482500D01*
X37118095Y-104452262D01*
X36997143Y-104452262D01*
X36936667Y-104482500D01*
X36906428Y-104512738D01*
X36876190Y-104573214D01*
X36876190Y-104724405D01*
X36906428Y-104784881D01*
X36936667Y-104815119D01*
X36997143Y-104845357D01*
X37118095Y-104845357D01*
X37178571Y-104815119D01*
X37208809Y-104784881D01*
X37239048Y-104724405D01*
X36243451Y-105957024D02*
X36334166Y-105987262D01*
X36485356Y-105987262D01*
X36545832Y-105957024D01*
X36576070Y-105926786D01*
X36606309Y-105866310D01*
X36606309Y-105805833D01*
X36576070Y-105745357D01*
X36545832Y-105715119D01*
X36485356Y-105684881D01*
X36364404Y-105654643D01*
X36303928Y-105624405D01*
X36273689Y-105594167D01*
X36243451Y-105533690D01*
X36243451Y-105473214D01*
X36273689Y-105412738D01*
X36303928Y-105382500D01*
X36364404Y-105352262D01*
X36515594Y-105352262D01*
X36606309Y-105382500D01*
X36878451Y-105987262D02*
X36878451Y-105352262D01*
X37029642Y-105352262D01*
X37120356Y-105382500D01*
X37180832Y-105442976D01*
X37211071Y-105503452D01*
X37241309Y-105624405D01*
X37241309Y-105715119D01*
X37211071Y-105836071D01*
X37180832Y-105896548D01*
X37120356Y-105957024D01*
X37029642Y-105987262D01*
X36878451Y-105987262D01*
X37876309Y-105987262D02*
X37664642Y-105684881D01*
X37513451Y-105987262D02*
X37513451Y-105352262D01*
X37755356Y-105352262D01*
X37815832Y-105382500D01*
X37846071Y-105412738D01*
X37876309Y-105473214D01*
X37876309Y-105563929D01*
X37846071Y-105624405D01*
X37815832Y-105654643D01*
X37755356Y-105684881D01*
X37513451Y-105684881D01*
X38118213Y-105805833D02*
X38420594Y-105805833D01*
X38057737Y-105987262D02*
X38269404Y-105352262D01*
X38481071Y-105987262D01*
X38692737Y-105987262D02*
X38692737Y-105352262D01*
X38904404Y-105805833D01*
X39116071Y-105352262D01*
X39116071Y-105987262D01*
X39267261Y-106047738D02*
X39751071Y-106047738D01*
X39902261Y-105987262D02*
X39902261Y-105352262D01*
X40113928Y-105805833D01*
X40325595Y-105352262D01*
X40325595Y-105987262D01*
X40537261Y-105352262D02*
X40900118Y-105352262D01*
X40718690Y-105987262D02*
X40718690Y-105352262D01*
X41383928Y-105563929D02*
X41383928Y-105987262D01*
X41232738Y-105322024D02*
X41081547Y-105775595D01*
X41474643Y-105775595D01*
X41807262Y-105624405D02*
X41746786Y-105594167D01*
X41716547Y-105563929D01*
X41686309Y-105503452D01*
X41686309Y-105473214D01*
X41716547Y-105412738D01*
X41746786Y-105382500D01*
X41807262Y-105352262D01*
X41928214Y-105352262D01*
X41988690Y-105382500D01*
X42018928Y-105412738D01*
X42049167Y-105473214D01*
X42049167Y-105503452D01*
X42018928Y-105563929D01*
X41988690Y-105594167D01*
X41928214Y-105624405D01*
X41807262Y-105624405D01*
X41746786Y-105654643D01*
X41716547Y-105684881D01*
X41686309Y-105745357D01*
X41686309Y-105866310D01*
X41716547Y-105926786D01*
X41746786Y-105957024D01*
X41807262Y-105987262D01*
X41928214Y-105987262D01*
X41988690Y-105957024D01*
X42018928Y-105926786D01*
X42049167Y-105866310D01*
X42049167Y-105745357D01*
X42018928Y-105684881D01*
X41988690Y-105654643D01*
X41928214Y-105624405D01*
X42170119Y-106047738D02*
X42653929Y-106047738D01*
X42744643Y-105987262D02*
X43077262Y-105563929D01*
X42744643Y-105563929D02*
X43077262Y-105987262D01*
X43651787Y-105987262D02*
X43288929Y-105987262D01*
X43470358Y-105987262D02*
X43470358Y-105352262D01*
X43409882Y-105442976D01*
X43349406Y-105503452D01*
X43288929Y-105533690D01*
X44196072Y-105352262D02*
X44075120Y-105352262D01*
X44014644Y-105382500D01*
X43984406Y-105412738D01*
X43923929Y-105503452D01*
X43893691Y-105624405D01*
X43893691Y-105866310D01*
X43923929Y-105926786D01*
X43954168Y-105957024D01*
X44014644Y-105987262D01*
X44135596Y-105987262D01*
X44196072Y-105957024D01*
X44226310Y-105926786D01*
X44256549Y-105866310D01*
X44256549Y-105715119D01*
X44226310Y-105654643D01*
X44196072Y-105624405D01*
X44135596Y-105594167D01*
X44014644Y-105594167D01*
X43954168Y-105624405D01*
X43923929Y-105654643D01*
X43893691Y-105715119D01*
X42441786Y-118576786D02*
X42411548Y-118607024D01*
X42320833Y-118637262D01*
X42260357Y-118637262D01*
X42169643Y-118607024D01*
X42109167Y-118546548D01*
X42078928Y-118486071D01*
X42048690Y-118365119D01*
X42048690Y-118274405D01*
X42078928Y-118153452D01*
X42109167Y-118092976D01*
X42169643Y-118032500D01*
X42260357Y-118002262D01*
X42320833Y-118002262D01*
X42411548Y-118032500D01*
X42441786Y-118062738D01*
X42653452Y-118002262D02*
X43046548Y-118002262D01*
X42834881Y-118244167D01*
X42925595Y-118244167D01*
X42986071Y-118274405D01*
X43016309Y-118304643D01*
X43046548Y-118365119D01*
X43046548Y-118516310D01*
X43016309Y-118576786D01*
X42986071Y-118607024D01*
X42925595Y-118637262D01*
X42744167Y-118637262D01*
X42683690Y-118607024D01*
X42653452Y-118576786D01*
X43258214Y-118002262D02*
X43651310Y-118002262D01*
X43439643Y-118244167D01*
X43530357Y-118244167D01*
X43590833Y-118274405D01*
X43621071Y-118304643D01*
X43651310Y-118365119D01*
X43651310Y-118516310D01*
X43621071Y-118576786D01*
X43590833Y-118607024D01*
X43530357Y-118637262D01*
X43348929Y-118637262D01*
X43288452Y-118607024D01*
X43258214Y-118576786D01*
X114591190Y-132027262D02*
X114591190Y-132541310D01*
X114621429Y-132601786D01*
X114651667Y-132632024D01*
X114712143Y-132662262D01*
X114833095Y-132662262D01*
X114893571Y-132632024D01*
X114923810Y-132601786D01*
X114954048Y-132541310D01*
X114954048Y-132027262D01*
X115558809Y-132027262D02*
X115256428Y-132027262D01*
X115226190Y-132329643D01*
X115256428Y-132299405D01*
X115316905Y-132269167D01*
X115468095Y-132269167D01*
X115528571Y-132299405D01*
X115558809Y-132329643D01*
X115589048Y-132390119D01*
X115589048Y-132541310D01*
X115558809Y-132601786D01*
X115528571Y-132632024D01*
X115468095Y-132662262D01*
X115316905Y-132662262D01*
X115256428Y-132632024D01*
X115226190Y-132601786D01*
X114935475Y-133637262D02*
X114633094Y-133637262D01*
X114633094Y-133002262D01*
X115147142Y-133637262D02*
X115147142Y-133002262D01*
X115298333Y-133002262D01*
X115389047Y-133032500D01*
X115449523Y-133092976D01*
X115479762Y-133153452D01*
X115510000Y-133274405D01*
X115510000Y-133365119D01*
X115479762Y-133486071D01*
X115449523Y-133546548D01*
X115389047Y-133607024D01*
X115298333Y-133637262D01*
X115147142Y-133637262D01*
X116114762Y-133637262D02*
X115751904Y-133637262D01*
X115933333Y-133637262D02*
X115933333Y-133002262D01*
X115872857Y-133092976D01*
X115812381Y-133153452D01*
X115751904Y-133183690D01*
X116719524Y-133637262D02*
X116356666Y-133637262D01*
X116538095Y-133637262D02*
X116538095Y-133002262D01*
X116477619Y-133092976D01*
X116417143Y-133153452D01*
X116356666Y-133183690D01*
X117324286Y-133637262D02*
X116961428Y-133637262D01*
X117142857Y-133637262D02*
X117142857Y-133002262D01*
X117082381Y-133092976D01*
X117021905Y-133153452D01*
X116961428Y-133183690D01*
X117535952Y-133002262D02*
X117959286Y-133002262D01*
X117687143Y-133637262D01*
X118170952Y-133607024D02*
X118261667Y-133637262D01*
X118412857Y-133637262D01*
X118473333Y-133607024D01*
X118503571Y-133576786D01*
X118533810Y-133516310D01*
X118533810Y-133455833D01*
X118503571Y-133395357D01*
X118473333Y-133365119D01*
X118412857Y-133334881D01*
X118291905Y-133304643D01*
X118231429Y-133274405D01*
X118201190Y-133244167D01*
X118170952Y-133183690D01*
X118170952Y-133123214D01*
X118201190Y-133062738D01*
X118231429Y-133032500D01*
X118291905Y-133002262D01*
X118443095Y-133002262D01*
X118533810Y-133032500D01*
X118745476Y-133002262D02*
X119138572Y-133002262D01*
X118926905Y-133244167D01*
X119017619Y-133244167D01*
X119078095Y-133274405D01*
X119108333Y-133304643D01*
X119138572Y-133365119D01*
X119138572Y-133516310D01*
X119108333Y-133576786D01*
X119078095Y-133607024D01*
X119017619Y-133637262D01*
X118836191Y-133637262D01*
X118775714Y-133607024D01*
X118745476Y-133576786D01*
X119350238Y-133002262D02*
X119743334Y-133002262D01*
X119531667Y-133244167D01*
X119622381Y-133244167D01*
X119682857Y-133274405D01*
X119713095Y-133304643D01*
X119743334Y-133365119D01*
X119743334Y-133516310D01*
X119713095Y-133576786D01*
X119682857Y-133607024D01*
X119622381Y-133637262D01*
X119440953Y-133637262D01*
X119380476Y-133607024D01*
X119350238Y-133576786D01*
X120378334Y-133576786D02*
X120348096Y-133607024D01*
X120257381Y-133637262D01*
X120196905Y-133637262D01*
X120106191Y-133607024D01*
X120045715Y-133546548D01*
X120015476Y-133486071D01*
X119985238Y-133365119D01*
X119985238Y-133274405D01*
X120015476Y-133153452D01*
X120045715Y-133092976D01*
X120106191Y-133032500D01*
X120196905Y-133002262D01*
X120257381Y-133002262D01*
X120348096Y-133032500D01*
X120378334Y-133062738D01*
X120559762Y-133002262D02*
X120922619Y-133002262D01*
X120741191Y-133637262D02*
X120741191Y-133002262D01*
X121497144Y-133637262D02*
X121285477Y-133334881D01*
X121134286Y-133637262D02*
X121134286Y-133002262D01*
X121376191Y-133002262D01*
X121436667Y-133032500D01*
X121466906Y-133062738D01*
X121497144Y-133123214D01*
X121497144Y-133213929D01*
X121466906Y-133274405D01*
X121436667Y-133304643D01*
X121376191Y-133334881D01*
X121134286Y-133334881D01*
X56356785Y-82627262D02*
X56356785Y-83080833D01*
X56326547Y-83171548D01*
X56266071Y-83232024D01*
X56175356Y-83262262D01*
X56114880Y-83262262D01*
X56568452Y-82627262D02*
X56931309Y-82627262D01*
X56749881Y-83262262D02*
X56749881Y-82627262D01*
X57112738Y-83080833D02*
X57415119Y-83080833D01*
X57052262Y-83262262D02*
X57263929Y-82627262D01*
X57475596Y-83262262D01*
X58019882Y-82657500D02*
X57959405Y-82627262D01*
X57868691Y-82627262D01*
X57777977Y-82657500D01*
X57717501Y-82717976D01*
X57687262Y-82778452D01*
X57657024Y-82899405D01*
X57657024Y-82990119D01*
X57687262Y-83111071D01*
X57717501Y-83171548D01*
X57777977Y-83232024D01*
X57868691Y-83262262D01*
X57929167Y-83262262D01*
X58019882Y-83232024D01*
X58050120Y-83201786D01*
X58050120Y-82990119D01*
X57929167Y-82990119D01*
X58654882Y-83262262D02*
X58292024Y-83262262D01*
X58473453Y-83262262D02*
X58473453Y-82627262D01*
X58412977Y-82717976D01*
X58352501Y-82778452D01*
X58292024Y-82808690D01*
X59624881Y-82352262D02*
X59987738Y-82352262D01*
X59806310Y-82987262D02*
X59806310Y-82352262D01*
X60199405Y-82987262D02*
X60199405Y-82352262D01*
X60350596Y-82352262D01*
X60441310Y-82382500D01*
X60501786Y-82442976D01*
X60532025Y-82503452D01*
X60562263Y-82624405D01*
X60562263Y-82715119D01*
X60532025Y-82836071D01*
X60501786Y-82896548D01*
X60441310Y-82957024D01*
X60350596Y-82987262D01*
X60199405Y-82987262D01*
X60834405Y-82987262D02*
X60834405Y-82352262D01*
X69608571Y-82352262D02*
X69971428Y-82352262D01*
X69790000Y-82987262D02*
X69790000Y-82352262D01*
X70545953Y-82926786D02*
X70515715Y-82957024D01*
X70425000Y-82987262D01*
X70364524Y-82987262D01*
X70273810Y-82957024D01*
X70213334Y-82896548D01*
X70183095Y-82836071D01*
X70152857Y-82715119D01*
X70152857Y-82624405D01*
X70183095Y-82503452D01*
X70213334Y-82442976D01*
X70273810Y-82382500D01*
X70364524Y-82352262D01*
X70425000Y-82352262D01*
X70515715Y-82382500D01*
X70545953Y-82412738D01*
X70818095Y-82987262D02*
X70818095Y-82352262D01*
X71180953Y-82987262D02*
X70908810Y-82624405D01*
X71180953Y-82352262D02*
X70818095Y-82715119D01*
X67093452Y-82352262D02*
X67456309Y-82352262D01*
X67274881Y-82987262D02*
X67274881Y-82352262D01*
X67667976Y-82987262D02*
X67667976Y-82352262D01*
X67819167Y-82352262D01*
X67909881Y-82382500D01*
X67970357Y-82442976D01*
X68000596Y-82503452D01*
X68030834Y-82624405D01*
X68030834Y-82715119D01*
X68000596Y-82836071D01*
X67970357Y-82896548D01*
X67909881Y-82957024D01*
X67819167Y-82987262D01*
X67667976Y-82987262D01*
X68423929Y-82352262D02*
X68544881Y-82352262D01*
X68605357Y-82382500D01*
X68665834Y-82442976D01*
X68696072Y-82563929D01*
X68696072Y-82775595D01*
X68665834Y-82896548D01*
X68605357Y-82957024D01*
X68544881Y-82987262D01*
X68423929Y-82987262D01*
X68363453Y-82957024D01*
X68302976Y-82896548D01*
X68272738Y-82775595D01*
X68272738Y-82563929D01*
X68302976Y-82442976D01*
X68363453Y-82382500D01*
X68423929Y-82352262D01*
X64503333Y-81677262D02*
X64866190Y-81677262D01*
X64684762Y-82312262D02*
X64684762Y-81677262D01*
X65077857Y-82312262D02*
X65077857Y-81677262D01*
X65289524Y-82130833D01*
X65501191Y-81677262D01*
X65501191Y-82312262D01*
X65773333Y-82282024D02*
X65864048Y-82312262D01*
X66015238Y-82312262D01*
X66075714Y-82282024D01*
X66105952Y-82251786D01*
X66136191Y-82191310D01*
X66136191Y-82130833D01*
X66105952Y-82070357D01*
X66075714Y-82040119D01*
X66015238Y-82009881D01*
X65894286Y-81979643D01*
X65833810Y-81949405D01*
X65803571Y-81919167D01*
X65773333Y-81858690D01*
X65773333Y-81798214D01*
X65803571Y-81737738D01*
X65833810Y-81707500D01*
X65894286Y-81677262D01*
X66045476Y-81677262D01*
X66136191Y-81707500D01*
X66811428Y-89152262D02*
X67023095Y-89787262D01*
X67234762Y-89152262D01*
X67809286Y-89787262D02*
X67597619Y-89484881D01*
X67446428Y-89787262D02*
X67446428Y-89152262D01*
X67688333Y-89152262D01*
X67748809Y-89182500D01*
X67779048Y-89212738D01*
X67809286Y-89273214D01*
X67809286Y-89363929D01*
X67779048Y-89424405D01*
X67748809Y-89454643D01*
X67688333Y-89484881D01*
X67446428Y-89484881D01*
X68081428Y-89454643D02*
X68293095Y-89454643D01*
X68383809Y-89787262D02*
X68081428Y-89787262D01*
X68081428Y-89152262D01*
X68383809Y-89152262D01*
X68867619Y-89454643D02*
X68655952Y-89454643D01*
X68655952Y-89787262D02*
X68655952Y-89152262D01*
X68958333Y-89152262D01*
X69941191Y-89182500D02*
X69880714Y-89152262D01*
X69790000Y-89152262D01*
X69699286Y-89182500D01*
X69638810Y-89242976D01*
X69608571Y-89303452D01*
X69578333Y-89424405D01*
X69578333Y-89515119D01*
X69608571Y-89636071D01*
X69638810Y-89696548D01*
X69699286Y-89757024D01*
X69790000Y-89787262D01*
X69850476Y-89787262D01*
X69941191Y-89757024D01*
X69971429Y-89726786D01*
X69971429Y-89515119D01*
X69850476Y-89515119D01*
X70243571Y-89787262D02*
X70243571Y-89152262D01*
X70606429Y-89787262D01*
X70606429Y-89152262D01*
X70908809Y-89787262D02*
X70908809Y-89152262D01*
X71060000Y-89152262D01*
X71150714Y-89182500D01*
X71211190Y-89242976D01*
X71241429Y-89303452D01*
X71271667Y-89424405D01*
X71271667Y-89515119D01*
X71241429Y-89636071D01*
X71211190Y-89696548D01*
X71150714Y-89757024D01*
X71060000Y-89787262D01*
X70908809Y-89787262D01*
X59791191Y-89182500D02*
X59730714Y-89152262D01*
X59640000Y-89152262D01*
X59549286Y-89182500D01*
X59488810Y-89242976D01*
X59458571Y-89303452D01*
X59428333Y-89424405D01*
X59428333Y-89515119D01*
X59458571Y-89636071D01*
X59488810Y-89696548D01*
X59549286Y-89757024D01*
X59640000Y-89787262D01*
X59700476Y-89787262D01*
X59791191Y-89757024D01*
X59821429Y-89726786D01*
X59821429Y-89515119D01*
X59700476Y-89515119D01*
X60093571Y-89787262D02*
X60093571Y-89152262D01*
X60456429Y-89787262D01*
X60456429Y-89152262D01*
X60758809Y-89787262D02*
X60758809Y-89152262D01*
X60910000Y-89152262D01*
X61000714Y-89182500D01*
X61061190Y-89242976D01*
X61091429Y-89303452D01*
X61121667Y-89424405D01*
X61121667Y-89515119D01*
X61091429Y-89636071D01*
X61061190Y-89696548D01*
X61000714Y-89757024D01*
X60910000Y-89787262D01*
X60758809Y-89787262D01*
D19*
X104826857Y-90116857D02*
X105044571Y-90189429D01*
X105407428Y-90189429D01*
X105552571Y-90116857D01*
X105625142Y-90044286D01*
X105697714Y-89899143D01*
X105697714Y-89754000D01*
X105625142Y-89608857D01*
X105552571Y-89536286D01*
X105407428Y-89463714D01*
X105117142Y-89391143D01*
X104972000Y-89318571D01*
X104899428Y-89246000D01*
X104826857Y-89100857D01*
X104826857Y-88955714D01*
X104899428Y-88810571D01*
X104972000Y-88738000D01*
X105117142Y-88665429D01*
X105480000Y-88665429D01*
X105697714Y-88738000D01*
X106350857Y-90189429D02*
X106350857Y-88665429D01*
X106713714Y-88665429D01*
X106931429Y-88738000D01*
X107076571Y-88883143D01*
X107149143Y-89028286D01*
X107221714Y-89318571D01*
X107221714Y-89536286D01*
X107149143Y-89826571D01*
X107076571Y-89971714D01*
X106931429Y-90116857D01*
X106713714Y-90189429D01*
X106350857Y-90189429D01*
X108673143Y-90189429D02*
X107802286Y-90189429D01*
X108237714Y-90189429D02*
X108237714Y-88665429D01*
X108092571Y-88883143D01*
X107947429Y-89028286D01*
X107802286Y-89100857D01*
X83169428Y-95691857D02*
X83387142Y-95764429D01*
X83749999Y-95764429D01*
X83895142Y-95691857D01*
X83967713Y-95619286D01*
X84040285Y-95474143D01*
X84040285Y-95329000D01*
X83967713Y-95183857D01*
X83895142Y-95111286D01*
X83749999Y-95038714D01*
X83459713Y-94966143D01*
X83314571Y-94893571D01*
X83241999Y-94821000D01*
X83169428Y-94675857D01*
X83169428Y-94530714D01*
X83241999Y-94385571D01*
X83314571Y-94313000D01*
X83459713Y-94240429D01*
X83822571Y-94240429D01*
X84040285Y-94313000D01*
X85564285Y-95619286D02*
X85491714Y-95691857D01*
X85274000Y-95764429D01*
X85128857Y-95764429D01*
X84911142Y-95691857D01*
X84766000Y-95546714D01*
X84693428Y-95401571D01*
X84620857Y-95111286D01*
X84620857Y-94893571D01*
X84693428Y-94603286D01*
X84766000Y-94458143D01*
X84911142Y-94313000D01*
X85128857Y-94240429D01*
X85274000Y-94240429D01*
X85491714Y-94313000D01*
X85564285Y-94385571D01*
X86217428Y-95764429D02*
X86217428Y-94240429D01*
X86580285Y-94240429D01*
X86798000Y-94313000D01*
X86943142Y-94458143D01*
X87015714Y-94603286D01*
X87088285Y-94893571D01*
X87088285Y-95111286D01*
X87015714Y-95401571D01*
X86943142Y-95546714D01*
X86798000Y-95691857D01*
X86580285Y-95764429D01*
X86217428Y-95764429D01*
X87668857Y-95329000D02*
X88394571Y-95329000D01*
X87523714Y-95764429D02*
X88031714Y-94240429D01*
X88539714Y-95764429D01*
X89555714Y-94966143D02*
X89773428Y-95038714D01*
X89846000Y-95111286D01*
X89918571Y-95256429D01*
X89918571Y-95474143D01*
X89846000Y-95619286D01*
X89773428Y-95691857D01*
X89628286Y-95764429D01*
X89047714Y-95764429D01*
X89047714Y-94240429D01*
X89555714Y-94240429D01*
X89700857Y-94313000D01*
X89773428Y-94385571D01*
X89846000Y-94530714D01*
X89846000Y-94675857D01*
X89773428Y-94821000D01*
X89700857Y-94893571D01*
X89555714Y-94966143D01*
X89047714Y-94966143D01*
X90499143Y-95329000D02*
X91224857Y-95329000D01*
X90354000Y-95764429D02*
X90862000Y-94240429D01*
X91370000Y-95764429D01*
X92168286Y-94240429D02*
X92313429Y-94240429D01*
X92458572Y-94313000D01*
X92531143Y-94385571D01*
X92603714Y-94530714D01*
X92676286Y-94821000D01*
X92676286Y-95183857D01*
X92603714Y-95474143D01*
X92531143Y-95619286D01*
X92458572Y-95691857D01*
X92313429Y-95764429D01*
X92168286Y-95764429D01*
X92023143Y-95691857D01*
X91950572Y-95619286D01*
X91878000Y-95474143D01*
X91805429Y-95183857D01*
X91805429Y-94821000D01*
X91878000Y-94530714D01*
X91950572Y-94385571D01*
X92023143Y-94313000D01*
X92168286Y-94240429D01*
X94055143Y-94240429D02*
X93329429Y-94240429D01*
X93256858Y-94966143D01*
X93329429Y-94893571D01*
X93474572Y-94821000D01*
X93837429Y-94821000D01*
X93982572Y-94893571D01*
X94055143Y-94966143D01*
X94127715Y-95111286D01*
X94127715Y-95474143D01*
X94055143Y-95619286D01*
X93982572Y-95691857D01*
X93837429Y-95764429D01*
X93474572Y-95764429D01*
X93329429Y-95691857D01*
X93256858Y-95619286D01*
X95071144Y-94240429D02*
X95216287Y-94240429D01*
X95361430Y-94313000D01*
X95434001Y-94385571D01*
X95506572Y-94530714D01*
X95579144Y-94821000D01*
X95579144Y-95183857D01*
X95506572Y-95474143D01*
X95434001Y-95619286D01*
X95361430Y-95691857D01*
X95216287Y-95764429D01*
X95071144Y-95764429D01*
X94926001Y-95691857D01*
X94853430Y-95619286D01*
X94780858Y-95474143D01*
X94708287Y-95183857D01*
X94708287Y-94821000D01*
X94780858Y-94530714D01*
X94853430Y-94385571D01*
X94926001Y-94313000D01*
X95071144Y-94240429D01*
X96522573Y-94240429D02*
X96667716Y-94240429D01*
X96812859Y-94313000D01*
X96885430Y-94385571D01*
X96958001Y-94530714D01*
X97030573Y-94821000D01*
X97030573Y-95183857D01*
X96958001Y-95474143D01*
X96885430Y-95619286D01*
X96812859Y-95691857D01*
X96667716Y-95764429D01*
X96522573Y-95764429D01*
X96377430Y-95691857D01*
X96304859Y-95619286D01*
X96232287Y-95474143D01*
X96159716Y-95183857D01*
X96159716Y-94821000D01*
X96232287Y-94530714D01*
X96304859Y-94385571D01*
X96377430Y-94313000D01*
X96522573Y-94240429D01*
D11*
X70085952Y-103577262D02*
X70509286Y-104212262D01*
X70509286Y-103577262D02*
X70085952Y-104212262D01*
X71023333Y-103788929D02*
X71023333Y-104212262D01*
X70872143Y-103547024D02*
X70720952Y-104000595D01*
X71114048Y-104000595D01*
X29921904Y-93912262D02*
X29619523Y-93912262D01*
X29619523Y-93277262D01*
X30133571Y-93579643D02*
X30345238Y-93579643D01*
X30435952Y-93912262D02*
X30133571Y-93912262D01*
X30133571Y-93277262D01*
X30435952Y-93277262D01*
X30708095Y-93912262D02*
X30708095Y-93277262D01*
X30859286Y-93277262D01*
X30950000Y-93307500D01*
X31010476Y-93367976D01*
X31040715Y-93428452D01*
X31070953Y-93549405D01*
X31070953Y-93640119D01*
X31040715Y-93761071D01*
X31010476Y-93821548D01*
X30950000Y-93882024D01*
X30859286Y-93912262D01*
X30708095Y-93912262D01*
X31705953Y-93912262D02*
X31494286Y-93609881D01*
X31343095Y-93912262D02*
X31343095Y-93277262D01*
X31585000Y-93277262D01*
X31645476Y-93307500D01*
X31675715Y-93337738D01*
X31705953Y-93398214D01*
X31705953Y-93488929D01*
X31675715Y-93549405D01*
X31645476Y-93579643D01*
X31585000Y-93609881D01*
X31343095Y-93609881D01*
X32310715Y-93912262D02*
X31947857Y-93912262D01*
X32129286Y-93912262D02*
X32129286Y-93277262D01*
X32068810Y-93367976D01*
X32008334Y-93428452D01*
X31947857Y-93458690D01*
D13*
X33578095Y-95212381D02*
X33578095Y-94212381D01*
X34149524Y-95212381D02*
X33720952Y-94640952D01*
X34149524Y-94212381D02*
X33578095Y-94783810D01*
D11*
X29921904Y-105712262D02*
X29619523Y-105712262D01*
X29619523Y-105077262D01*
X30133571Y-105379643D02*
X30345238Y-105379643D01*
X30435952Y-105712262D02*
X30133571Y-105712262D01*
X30133571Y-105077262D01*
X30435952Y-105077262D01*
X30708095Y-105712262D02*
X30708095Y-105077262D01*
X30859286Y-105077262D01*
X30950000Y-105107500D01*
X31010476Y-105167976D01*
X31040715Y-105228452D01*
X31070953Y-105349405D01*
X31070953Y-105440119D01*
X31040715Y-105561071D01*
X31010476Y-105621548D01*
X30950000Y-105682024D01*
X30859286Y-105712262D01*
X30708095Y-105712262D01*
X31675715Y-105107500D02*
X31615238Y-105077262D01*
X31524524Y-105077262D01*
X31433810Y-105107500D01*
X31373334Y-105167976D01*
X31343095Y-105228452D01*
X31312857Y-105349405D01*
X31312857Y-105440119D01*
X31343095Y-105561071D01*
X31373334Y-105621548D01*
X31433810Y-105682024D01*
X31524524Y-105712262D01*
X31585000Y-105712262D01*
X31675715Y-105682024D01*
X31705953Y-105651786D01*
X31705953Y-105440119D01*
X31585000Y-105440119D01*
X32310715Y-105712262D02*
X31947857Y-105712262D01*
X32129286Y-105712262D02*
X32129286Y-105077262D01*
X32068810Y-105167976D01*
X32008334Y-105228452D01*
X31947857Y-105258690D01*
D13*
X33578095Y-101262381D02*
X33578095Y-100262381D01*
X34149524Y-101262381D02*
X33720952Y-100690952D01*
X34149524Y-100262381D02*
X33578095Y-100833810D01*
D11*
X120135952Y-126327262D02*
X120559286Y-126962262D01*
X120559286Y-126327262D02*
X120135952Y-126962262D01*
X121133810Y-126962262D02*
X120770952Y-126962262D01*
X120952381Y-126962262D02*
X120952381Y-126327262D01*
X120891905Y-126417976D01*
X120831429Y-126478452D01*
X120770952Y-126508690D01*
X118341786Y-129701786D02*
X118311548Y-129732024D01*
X118220833Y-129762262D01*
X118160357Y-129762262D01*
X118069643Y-129732024D01*
X118009167Y-129671548D01*
X117978928Y-129611071D01*
X117948690Y-129490119D01*
X117948690Y-129399405D01*
X117978928Y-129278452D01*
X118009167Y-129217976D01*
X118069643Y-129157500D01*
X118160357Y-129127262D01*
X118220833Y-129127262D01*
X118311548Y-129157500D01*
X118341786Y-129187738D01*
X118946548Y-129762262D02*
X118583690Y-129762262D01*
X118765119Y-129762262D02*
X118765119Y-129127262D01*
X118704643Y-129217976D01*
X118644167Y-129278452D01*
X118583690Y-129308690D01*
X119490833Y-129127262D02*
X119369881Y-129127262D01*
X119309405Y-129157500D01*
X119279167Y-129187738D01*
X119218690Y-129278452D01*
X119188452Y-129399405D01*
X119188452Y-129641310D01*
X119218690Y-129701786D01*
X119248929Y-129732024D01*
X119309405Y-129762262D01*
X119430357Y-129762262D01*
X119490833Y-129732024D01*
X119521071Y-129701786D01*
X119551310Y-129641310D01*
X119551310Y-129490119D01*
X119521071Y-129429643D01*
X119490833Y-129399405D01*
X119430357Y-129369167D01*
X119309405Y-129369167D01*
X119248929Y-129399405D01*
X119218690Y-129429643D01*
X119188452Y-129490119D01*
X120819643Y-129762262D02*
X120456785Y-129762262D01*
X120638214Y-129762262D02*
X120638214Y-129127262D01*
X120577738Y-129217976D01*
X120517262Y-129278452D01*
X120456785Y-129308690D01*
X121212738Y-129127262D02*
X121273214Y-129127262D01*
X121333690Y-129157500D01*
X121363928Y-129187738D01*
X121394166Y-129248214D01*
X121424405Y-129369167D01*
X121424405Y-129520357D01*
X121394166Y-129641310D01*
X121363928Y-129701786D01*
X121333690Y-129732024D01*
X121273214Y-129762262D01*
X121212738Y-129762262D01*
X121152262Y-129732024D01*
X121122024Y-129701786D01*
X121091785Y-129641310D01*
X121061547Y-129520357D01*
X121061547Y-129369167D01*
X121091785Y-129248214D01*
X121122024Y-129187738D01*
X121152262Y-129157500D01*
X121212738Y-129127262D01*
X121968690Y-129338929D02*
X121968690Y-129762262D01*
X121696547Y-129338929D02*
X121696547Y-129671548D01*
X121726786Y-129732024D01*
X121787262Y-129762262D01*
X121877976Y-129762262D01*
X121938452Y-129732024D01*
X121968690Y-129701786D01*
X122482738Y-129429643D02*
X122271071Y-129429643D01*
X122271071Y-129762262D02*
X122271071Y-129127262D01*
X122573452Y-129127262D01*
X34481785Y-112937262D02*
X34179404Y-112937262D01*
X34179404Y-112302262D01*
X34693452Y-112604643D02*
X34905119Y-112604643D01*
X34995833Y-112937262D02*
X34693452Y-112937262D01*
X34693452Y-112302262D01*
X34995833Y-112302262D01*
X35267976Y-112937262D02*
X35267976Y-112302262D01*
X35419167Y-112302262D01*
X35509881Y-112332500D01*
X35570357Y-112392976D01*
X35600596Y-112453452D01*
X35630834Y-112574405D01*
X35630834Y-112665119D01*
X35600596Y-112786071D01*
X35570357Y-112846548D01*
X35509881Y-112907024D01*
X35419167Y-112937262D01*
X35267976Y-112937262D01*
X36023929Y-112302262D02*
X36144881Y-112302262D01*
X36205357Y-112332500D01*
X36265834Y-112392976D01*
X36296072Y-112513929D01*
X36296072Y-112725595D01*
X36265834Y-112846548D01*
X36205357Y-112907024D01*
X36144881Y-112937262D01*
X36023929Y-112937262D01*
X35963453Y-112907024D01*
X35902976Y-112846548D01*
X35872738Y-112725595D01*
X35872738Y-112513929D01*
X35902976Y-112392976D01*
X35963453Y-112332500D01*
X36023929Y-112302262D01*
X36900834Y-112937262D02*
X36537976Y-112937262D01*
X36719405Y-112937262D02*
X36719405Y-112302262D01*
X36658929Y-112392976D01*
X36598453Y-112453452D01*
X36537976Y-112483690D01*
X35083571Y-125352262D02*
X35506905Y-125987262D01*
X35506905Y-125352262D02*
X35083571Y-125987262D01*
X36020952Y-125352262D02*
X35900000Y-125352262D01*
X35839524Y-125382500D01*
X35809286Y-125412738D01*
X35748809Y-125503452D01*
X35718571Y-125624405D01*
X35718571Y-125866310D01*
X35748809Y-125926786D01*
X35779048Y-125957024D01*
X35839524Y-125987262D01*
X35960476Y-125987262D01*
X36020952Y-125957024D01*
X36051190Y-125926786D01*
X36081429Y-125866310D01*
X36081429Y-125715119D01*
X36051190Y-125654643D01*
X36020952Y-125624405D01*
X35960476Y-125594167D01*
X35839524Y-125594167D01*
X35779048Y-125624405D01*
X35748809Y-125654643D01*
X35718571Y-125715119D01*
X36686191Y-125987262D02*
X36323333Y-125987262D01*
X36504762Y-125987262D02*
X36504762Y-125352262D01*
X36444286Y-125442976D01*
X36383810Y-125503452D01*
X36323333Y-125533690D01*
X53316190Y-107927262D02*
X53316190Y-108441310D01*
X53346429Y-108501786D01*
X53376667Y-108532024D01*
X53437143Y-108562262D01*
X53558095Y-108562262D01*
X53618571Y-108532024D01*
X53648810Y-108501786D01*
X53679048Y-108441310D01*
X53679048Y-107927262D01*
X54072143Y-108199405D02*
X54011667Y-108169167D01*
X53981428Y-108138929D01*
X53951190Y-108078452D01*
X53951190Y-108048214D01*
X53981428Y-107987738D01*
X54011667Y-107957500D01*
X54072143Y-107927262D01*
X54193095Y-107927262D01*
X54253571Y-107957500D01*
X54283809Y-107987738D01*
X54314048Y-108048214D01*
X54314048Y-108078452D01*
X54283809Y-108138929D01*
X54253571Y-108169167D01*
X54193095Y-108199405D01*
X54072143Y-108199405D01*
X54011667Y-108229643D01*
X53981428Y-108259881D01*
X53951190Y-108320357D01*
X53951190Y-108441310D01*
X53981428Y-108501786D01*
X54011667Y-108532024D01*
X54072143Y-108562262D01*
X54193095Y-108562262D01*
X54253571Y-108532024D01*
X54283809Y-108501786D01*
X54314048Y-108441310D01*
X54314048Y-108320357D01*
X54283809Y-108259881D01*
X54253571Y-108229643D01*
X54193095Y-108199405D01*
X53726072Y-109712262D02*
X53363214Y-109712262D01*
X53544643Y-109712262D02*
X53544643Y-109077262D01*
X53484167Y-109167976D01*
X53423691Y-109228452D01*
X53363214Y-109258690D01*
X54119167Y-109077262D02*
X54179643Y-109077262D01*
X54240119Y-109107500D01*
X54270357Y-109137738D01*
X54300595Y-109198214D01*
X54330834Y-109319167D01*
X54330834Y-109470357D01*
X54300595Y-109591310D01*
X54270357Y-109651786D01*
X54240119Y-109682024D01*
X54179643Y-109712262D01*
X54119167Y-109712262D01*
X54058691Y-109682024D01*
X54028453Y-109651786D01*
X53998214Y-109591310D01*
X53967976Y-109470357D01*
X53967976Y-109319167D01*
X53998214Y-109198214D01*
X54028453Y-109137738D01*
X54058691Y-109107500D01*
X54119167Y-109077262D01*
X54602976Y-109712262D02*
X54602976Y-109077262D01*
X54814643Y-109530833D01*
X55026310Y-109077262D01*
X55026310Y-109712262D01*
X55449643Y-109077262D02*
X55510119Y-109077262D01*
X55570595Y-109107500D01*
X55600833Y-109137738D01*
X55631071Y-109198214D01*
X55661310Y-109319167D01*
X55661310Y-109470357D01*
X55631071Y-109591310D01*
X55600833Y-109651786D01*
X55570595Y-109682024D01*
X55510119Y-109712262D01*
X55449643Y-109712262D01*
X55389167Y-109682024D01*
X55358929Y-109651786D01*
X55328690Y-109591310D01*
X55298452Y-109470357D01*
X55298452Y-109319167D01*
X55328690Y-109198214D01*
X55358929Y-109137738D01*
X55389167Y-109107500D01*
X55449643Y-109077262D01*
X56024167Y-109349405D02*
X55963691Y-109319167D01*
X55933452Y-109288929D01*
X55903214Y-109228452D01*
X55903214Y-109198214D01*
X55933452Y-109137738D01*
X55963691Y-109107500D01*
X56024167Y-109077262D01*
X56145119Y-109077262D01*
X56205595Y-109107500D01*
X56235833Y-109137738D01*
X56266072Y-109198214D01*
X56266072Y-109228452D01*
X56235833Y-109288929D01*
X56205595Y-109319167D01*
X56145119Y-109349405D01*
X56024167Y-109349405D01*
X55963691Y-109379643D01*
X55933452Y-109409881D01*
X55903214Y-109470357D01*
X55903214Y-109591310D01*
X55933452Y-109651786D01*
X55963691Y-109682024D01*
X56024167Y-109712262D01*
X56145119Y-109712262D01*
X56205595Y-109682024D01*
X56235833Y-109651786D01*
X56266072Y-109591310D01*
X56266072Y-109470357D01*
X56235833Y-109409881D01*
X56205595Y-109379643D01*
X56145119Y-109349405D01*
X56507976Y-109682024D02*
X56598691Y-109712262D01*
X56749881Y-109712262D01*
X56810357Y-109682024D01*
X56840595Y-109651786D01*
X56870834Y-109591310D01*
X56870834Y-109530833D01*
X56840595Y-109470357D01*
X56810357Y-109440119D01*
X56749881Y-109409881D01*
X56628929Y-109379643D01*
X56568453Y-109349405D01*
X56538214Y-109319167D01*
X56507976Y-109258690D01*
X56507976Y-109198214D01*
X56538214Y-109137738D01*
X56568453Y-109107500D01*
X56628929Y-109077262D01*
X56780119Y-109077262D01*
X56870834Y-109107500D01*
X57505834Y-109651786D02*
X57475596Y-109682024D01*
X57384881Y-109712262D01*
X57324405Y-109712262D01*
X57233691Y-109682024D01*
X57173215Y-109621548D01*
X57142976Y-109561071D01*
X57112738Y-109440119D01*
X57112738Y-109349405D01*
X57142976Y-109228452D01*
X57173215Y-109167976D01*
X57233691Y-109107500D01*
X57324405Y-109077262D01*
X57384881Y-109077262D01*
X57475596Y-109107500D01*
X57505834Y-109137738D01*
X57777976Y-109379643D02*
X57989643Y-109379643D01*
X58080357Y-109712262D02*
X57777976Y-109712262D01*
X57777976Y-109077262D01*
X58080357Y-109077262D01*
X58685120Y-109712262D02*
X58322262Y-109712262D01*
X58503691Y-109712262D02*
X58503691Y-109077262D01*
X58443215Y-109167976D01*
X58382739Y-109228452D01*
X58322262Y-109258690D01*
X59229405Y-109288929D02*
X59229405Y-109712262D01*
X59078215Y-109047024D02*
X58927024Y-109500595D01*
X59320120Y-109500595D01*
X59834167Y-109288929D02*
X59834167Y-109712262D01*
X59682977Y-109047024D02*
X59531786Y-109500595D01*
X59924882Y-109500595D01*
X60166786Y-109712262D02*
X60166786Y-109077262D01*
X60408691Y-109077262D02*
X60832025Y-109077262D01*
X60559882Y-109712262D01*
X61406549Y-109107500D02*
X61346072Y-109077262D01*
X61255358Y-109077262D01*
X61164644Y-109107500D01*
X61104168Y-109167976D01*
X61073929Y-109228452D01*
X61043691Y-109349405D01*
X61043691Y-109440119D01*
X61073929Y-109561071D01*
X61104168Y-109621548D01*
X61164644Y-109682024D01*
X61255358Y-109712262D01*
X61315834Y-109712262D01*
X61406549Y-109682024D01*
X61436787Y-109651786D01*
X61436787Y-109440119D01*
X61315834Y-109440119D01*
D13*
X57938095Y-136852381D02*
X57938095Y-137661905D01*
X57985714Y-137757143D01*
X58033333Y-137804762D01*
X58128571Y-137852381D01*
X58319048Y-137852381D01*
X58414286Y-137804762D01*
X58461905Y-137757143D01*
X58509524Y-137661905D01*
X58509524Y-136852381D01*
X58938095Y-136947619D02*
X58985714Y-136900000D01*
X59080952Y-136852381D01*
X59319048Y-136852381D01*
X59414286Y-136900000D01*
X59461905Y-136947619D01*
X59509524Y-137042857D01*
X59509524Y-137138095D01*
X59461905Y-137280952D01*
X58890476Y-137852381D01*
X59509524Y-137852381D01*
X89138095Y-146252381D02*
X89138095Y-147061905D01*
X89185714Y-147157143D01*
X89233333Y-147204762D01*
X89328571Y-147252381D01*
X89519048Y-147252381D01*
X89614286Y-147204762D01*
X89661905Y-147157143D01*
X89709524Y-147061905D01*
X89709524Y-146252381D01*
X90090476Y-146252381D02*
X90709524Y-146252381D01*
X90376190Y-146633333D01*
X90519048Y-146633333D01*
X90614286Y-146680952D01*
X90661905Y-146728571D01*
X90709524Y-146823810D01*
X90709524Y-147061905D01*
X90661905Y-147157143D01*
X90614286Y-147204762D01*
X90519048Y-147252381D01*
X90233333Y-147252381D01*
X90138095Y-147204762D01*
X90090476Y-147157143D01*
X87813095Y-122452381D02*
X87813095Y-123261905D01*
X87860714Y-123357143D01*
X87908333Y-123404762D01*
X88003571Y-123452381D01*
X88194048Y-123452381D01*
X88289286Y-123404762D01*
X88336905Y-123357143D01*
X88384524Y-123261905D01*
X88384524Y-122452381D01*
X89289286Y-122785714D02*
X89289286Y-123452381D01*
X89051190Y-122404762D02*
X88813095Y-123119048D01*
X89432143Y-123119048D01*
X40011905Y-136802381D02*
X40011905Y-137611905D01*
X40059524Y-137707143D01*
X40107143Y-137754762D01*
X40202381Y-137802381D01*
X40392858Y-137802381D01*
X40488096Y-137754762D01*
X40535715Y-137707143D01*
X40583334Y-137611905D01*
X40583334Y-136802381D01*
X41583334Y-137802381D02*
X41011905Y-137802381D01*
X41297619Y-137802381D02*
X41297619Y-136802381D01*
X41202381Y-136945238D01*
X41107143Y-137040476D01*
X41011905Y-137088095D01*
X42535715Y-137802381D02*
X41964286Y-137802381D01*
X42250000Y-137802381D02*
X42250000Y-136802381D01*
X42154762Y-136945238D01*
X42059524Y-137040476D01*
X41964286Y-137088095D01*
D11*
X30491786Y-117287262D02*
X30280119Y-116984881D01*
X30128928Y-117287262D02*
X30128928Y-116652262D01*
X30370833Y-116652262D01*
X30431309Y-116682500D01*
X30461548Y-116712738D01*
X30491786Y-116773214D01*
X30491786Y-116863929D01*
X30461548Y-116924405D01*
X30431309Y-116954643D01*
X30370833Y-116984881D01*
X30128928Y-116984881D01*
X31036071Y-116652262D02*
X30915119Y-116652262D01*
X30854643Y-116682500D01*
X30824405Y-116712738D01*
X30763928Y-116803452D01*
X30733690Y-116924405D01*
X30733690Y-117166310D01*
X30763928Y-117226786D01*
X30794167Y-117257024D01*
X30854643Y-117287262D01*
X30975595Y-117287262D01*
X31036071Y-117257024D01*
X31066309Y-117226786D01*
X31096548Y-117166310D01*
X31096548Y-117015119D01*
X31066309Y-116954643D01*
X31036071Y-116924405D01*
X30975595Y-116894167D01*
X30854643Y-116894167D01*
X30794167Y-116924405D01*
X30763928Y-116954643D01*
X30733690Y-117015119D01*
X31701310Y-117287262D02*
X31338452Y-117287262D01*
X31519881Y-117287262D02*
X31519881Y-116652262D01*
X31459405Y-116742976D01*
X31398929Y-116803452D01*
X31338452Y-116833690D01*
X30461548Y-118337262D02*
X30098690Y-118337262D01*
X30280119Y-118337262D02*
X30280119Y-117702262D01*
X30219643Y-117792976D01*
X30159167Y-117853452D01*
X30098690Y-117883690D01*
X30854643Y-117702262D02*
X30915119Y-117702262D01*
X30975595Y-117732500D01*
X31005833Y-117762738D01*
X31036071Y-117823214D01*
X31066310Y-117944167D01*
X31066310Y-118095357D01*
X31036071Y-118216310D01*
X31005833Y-118276786D01*
X30975595Y-118307024D01*
X30915119Y-118337262D01*
X30854643Y-118337262D01*
X30794167Y-118307024D01*
X30763929Y-118276786D01*
X30733690Y-118216310D01*
X30703452Y-118095357D01*
X30703452Y-117944167D01*
X30733690Y-117823214D01*
X30763929Y-117762738D01*
X30794167Y-117732500D01*
X30854643Y-117702262D01*
X31338452Y-118337262D02*
X31338452Y-117702262D01*
X31701310Y-118337262D02*
X31429167Y-117974405D01*
X31701310Y-117702262D02*
X31338452Y-118065119D01*
X35841786Y-117412262D02*
X35630119Y-117109881D01*
X35478928Y-117412262D02*
X35478928Y-116777262D01*
X35720833Y-116777262D01*
X35781309Y-116807500D01*
X35811548Y-116837738D01*
X35841786Y-116898214D01*
X35841786Y-116988929D01*
X35811548Y-117049405D01*
X35781309Y-117079643D01*
X35720833Y-117109881D01*
X35478928Y-117109881D01*
X36386071Y-116777262D02*
X36265119Y-116777262D01*
X36204643Y-116807500D01*
X36174405Y-116837738D01*
X36113928Y-116928452D01*
X36083690Y-117049405D01*
X36083690Y-117291310D01*
X36113928Y-117351786D01*
X36144167Y-117382024D01*
X36204643Y-117412262D01*
X36325595Y-117412262D01*
X36386071Y-117382024D01*
X36416309Y-117351786D01*
X36446548Y-117291310D01*
X36446548Y-117140119D01*
X36416309Y-117079643D01*
X36386071Y-117049405D01*
X36325595Y-117019167D01*
X36204643Y-117019167D01*
X36144167Y-117049405D01*
X36113928Y-117079643D01*
X36083690Y-117140119D01*
X36688452Y-116837738D02*
X36718690Y-116807500D01*
X36779167Y-116777262D01*
X36930357Y-116777262D01*
X36990833Y-116807500D01*
X37021071Y-116837738D01*
X37051310Y-116898214D01*
X37051310Y-116958690D01*
X37021071Y-117049405D01*
X36658214Y-117412262D01*
X37051310Y-117412262D01*
X35861548Y-118412262D02*
X35498690Y-118412262D01*
X35680119Y-118412262D02*
X35680119Y-117777262D01*
X35619643Y-117867976D01*
X35559167Y-117928452D01*
X35498690Y-117958690D01*
X36254643Y-117777262D02*
X36315119Y-117777262D01*
X36375595Y-117807500D01*
X36405833Y-117837738D01*
X36436071Y-117898214D01*
X36466310Y-118019167D01*
X36466310Y-118170357D01*
X36436071Y-118291310D01*
X36405833Y-118351786D01*
X36375595Y-118382024D01*
X36315119Y-118412262D01*
X36254643Y-118412262D01*
X36194167Y-118382024D01*
X36163929Y-118351786D01*
X36133690Y-118291310D01*
X36103452Y-118170357D01*
X36103452Y-118019167D01*
X36133690Y-117898214D01*
X36163929Y-117837738D01*
X36194167Y-117807500D01*
X36254643Y-117777262D01*
X36738452Y-118412262D02*
X36738452Y-117777262D01*
X37101310Y-118412262D02*
X36829167Y-118049405D01*
X37101310Y-117777262D02*
X36738452Y-118140119D01*
X107314405Y-96626786D02*
X107284167Y-96657024D01*
X107193452Y-96687262D01*
X107132976Y-96687262D01*
X107042262Y-96657024D01*
X106981786Y-96596548D01*
X106951547Y-96536071D01*
X106921309Y-96415119D01*
X106921309Y-96324405D01*
X106951547Y-96203452D01*
X106981786Y-96142976D01*
X107042262Y-96082500D01*
X107132976Y-96052262D01*
X107193452Y-96052262D01*
X107284167Y-96082500D01*
X107314405Y-96112738D01*
X107919167Y-96687262D02*
X107556309Y-96687262D01*
X107737738Y-96687262D02*
X107737738Y-96052262D01*
X107677262Y-96142976D01*
X107616786Y-96203452D01*
X107556309Y-96233690D01*
X108493690Y-96052262D02*
X108191309Y-96052262D01*
X108161071Y-96354643D01*
X108191309Y-96324405D01*
X108251786Y-96294167D01*
X108402976Y-96294167D01*
X108463452Y-96324405D01*
X108493690Y-96354643D01*
X108523929Y-96415119D01*
X108523929Y-96566310D01*
X108493690Y-96626786D01*
X108463452Y-96657024D01*
X108402976Y-96687262D01*
X108251786Y-96687262D01*
X108191309Y-96657024D01*
X108161071Y-96626786D01*
X109128691Y-96687262D02*
X108765833Y-96687262D01*
X108947262Y-96687262D02*
X108947262Y-96052262D01*
X108886786Y-96142976D01*
X108826310Y-96203452D01*
X108765833Y-96233690D01*
X107314405Y-94626786D02*
X107284167Y-94657024D01*
X107193452Y-94687262D01*
X107132976Y-94687262D01*
X107042262Y-94657024D01*
X106981786Y-94596548D01*
X106951547Y-94536071D01*
X106921309Y-94415119D01*
X106921309Y-94324405D01*
X106951547Y-94203452D01*
X106981786Y-94142976D01*
X107042262Y-94082500D01*
X107132976Y-94052262D01*
X107193452Y-94052262D01*
X107284167Y-94082500D01*
X107314405Y-94112738D01*
X107919167Y-94687262D02*
X107556309Y-94687262D01*
X107737738Y-94687262D02*
X107737738Y-94052262D01*
X107677262Y-94142976D01*
X107616786Y-94203452D01*
X107556309Y-94233690D01*
X108493690Y-94052262D02*
X108191309Y-94052262D01*
X108161071Y-94354643D01*
X108191309Y-94324405D01*
X108251786Y-94294167D01*
X108402976Y-94294167D01*
X108463452Y-94324405D01*
X108493690Y-94354643D01*
X108523929Y-94415119D01*
X108523929Y-94566310D01*
X108493690Y-94626786D01*
X108463452Y-94657024D01*
X108402976Y-94687262D01*
X108251786Y-94687262D01*
X108191309Y-94657024D01*
X108161071Y-94626786D01*
X108765833Y-94112738D02*
X108796071Y-94082500D01*
X108856548Y-94052262D01*
X109007738Y-94052262D01*
X109068214Y-94082500D01*
X109098452Y-94112738D01*
X109128691Y-94173214D01*
X109128691Y-94233690D01*
X109098452Y-94324405D01*
X108735595Y-94687262D01*
X109128691Y-94687262D01*
X107314405Y-92251786D02*
X107284167Y-92282024D01*
X107193452Y-92312262D01*
X107132976Y-92312262D01*
X107042262Y-92282024D01*
X106981786Y-92221548D01*
X106951547Y-92161071D01*
X106921309Y-92040119D01*
X106921309Y-91949405D01*
X106951547Y-91828452D01*
X106981786Y-91767976D01*
X107042262Y-91707500D01*
X107132976Y-91677262D01*
X107193452Y-91677262D01*
X107284167Y-91707500D01*
X107314405Y-91737738D01*
X107919167Y-92312262D02*
X107556309Y-92312262D01*
X107737738Y-92312262D02*
X107737738Y-91677262D01*
X107677262Y-91767976D01*
X107616786Y-91828452D01*
X107556309Y-91858690D01*
X108493690Y-91677262D02*
X108191309Y-91677262D01*
X108161071Y-91979643D01*
X108191309Y-91949405D01*
X108251786Y-91919167D01*
X108402976Y-91919167D01*
X108463452Y-91949405D01*
X108493690Y-91979643D01*
X108523929Y-92040119D01*
X108523929Y-92191310D01*
X108493690Y-92251786D01*
X108463452Y-92282024D01*
X108402976Y-92312262D01*
X108251786Y-92312262D01*
X108191309Y-92282024D01*
X108161071Y-92251786D01*
X108735595Y-91677262D02*
X109128691Y-91677262D01*
X108917024Y-91919167D01*
X109007738Y-91919167D01*
X109068214Y-91949405D01*
X109098452Y-91979643D01*
X109128691Y-92040119D01*
X109128691Y-92191310D01*
X109098452Y-92251786D01*
X109068214Y-92282024D01*
X109007738Y-92312262D01*
X108826310Y-92312262D01*
X108765833Y-92282024D01*
X108735595Y-92251786D01*
X107132976Y-92863929D02*
X107132976Y-93287262D01*
X106981786Y-92622024D02*
X106830595Y-93075595D01*
X107223691Y-93075595D01*
X107465595Y-93226786D02*
X107495834Y-93257024D01*
X107465595Y-93287262D01*
X107435357Y-93257024D01*
X107465595Y-93226786D01*
X107465595Y-93287262D01*
X107707500Y-92652262D02*
X108130834Y-92652262D01*
X107858691Y-93287262D01*
X108644881Y-92863929D02*
X108644881Y-93287262D01*
X108372738Y-92863929D02*
X108372738Y-93196548D01*
X108402977Y-93257024D01*
X108463453Y-93287262D01*
X108554167Y-93287262D01*
X108614643Y-93257024D01*
X108644881Y-93226786D01*
X109158929Y-92954643D02*
X108947262Y-92954643D01*
X108947262Y-93287262D02*
X108947262Y-92652262D01*
X109249643Y-92652262D01*
X117714405Y-102401786D02*
X117684167Y-102432024D01*
X117593452Y-102462262D01*
X117532976Y-102462262D01*
X117442262Y-102432024D01*
X117381786Y-102371548D01*
X117351547Y-102311071D01*
X117321309Y-102190119D01*
X117321309Y-102099405D01*
X117351547Y-101978452D01*
X117381786Y-101917976D01*
X117442262Y-101857500D01*
X117532976Y-101827262D01*
X117593452Y-101827262D01*
X117684167Y-101857500D01*
X117714405Y-101887738D01*
X118319167Y-102462262D02*
X117956309Y-102462262D01*
X118137738Y-102462262D02*
X118137738Y-101827262D01*
X118077262Y-101917976D01*
X118016786Y-101978452D01*
X117956309Y-102008690D01*
X118893690Y-101827262D02*
X118591309Y-101827262D01*
X118561071Y-102129643D01*
X118591309Y-102099405D01*
X118651786Y-102069167D01*
X118802976Y-102069167D01*
X118863452Y-102099405D01*
X118893690Y-102129643D01*
X118923929Y-102190119D01*
X118923929Y-102341310D01*
X118893690Y-102401786D01*
X118863452Y-102432024D01*
X118802976Y-102462262D01*
X118651786Y-102462262D01*
X118591309Y-102432024D01*
X118561071Y-102401786D01*
X119468214Y-102038929D02*
X119468214Y-102462262D01*
X119317024Y-101797024D02*
X119165833Y-102250595D01*
X119558929Y-102250595D01*
X117689405Y-109437262D02*
X117477738Y-109134881D01*
X117326547Y-109437262D02*
X117326547Y-108802262D01*
X117568452Y-108802262D01*
X117628928Y-108832500D01*
X117659167Y-108862738D01*
X117689405Y-108923214D01*
X117689405Y-109013929D01*
X117659167Y-109074405D01*
X117628928Y-109104643D01*
X117568452Y-109134881D01*
X117326547Y-109134881D01*
X118294167Y-109437262D02*
X117931309Y-109437262D01*
X118112738Y-109437262D02*
X118112738Y-108802262D01*
X118052262Y-108892976D01*
X117991786Y-108953452D01*
X117931309Y-108983690D01*
X118868690Y-108802262D02*
X118566309Y-108802262D01*
X118536071Y-109104643D01*
X118566309Y-109074405D01*
X118626786Y-109044167D01*
X118777976Y-109044167D01*
X118838452Y-109074405D01*
X118868690Y-109104643D01*
X118898929Y-109165119D01*
X118898929Y-109316310D01*
X118868690Y-109376786D01*
X118838452Y-109407024D01*
X118777976Y-109437262D01*
X118626786Y-109437262D01*
X118566309Y-109407024D01*
X118536071Y-109376786D01*
X119140833Y-108862738D02*
X119171071Y-108832500D01*
X119231548Y-108802262D01*
X119382738Y-108802262D01*
X119443214Y-108832500D01*
X119473452Y-108862738D01*
X119503691Y-108923214D01*
X119503691Y-108983690D01*
X119473452Y-109074405D01*
X119110595Y-109437262D01*
X119503691Y-109437262D01*
X117986548Y-110437262D02*
X117623690Y-110437262D01*
X117805119Y-110437262D02*
X117805119Y-109802262D01*
X117744643Y-109892976D01*
X117684167Y-109953452D01*
X117623690Y-109983690D01*
X118379643Y-109802262D02*
X118440119Y-109802262D01*
X118500595Y-109832500D01*
X118530833Y-109862738D01*
X118561071Y-109923214D01*
X118591310Y-110044167D01*
X118591310Y-110195357D01*
X118561071Y-110316310D01*
X118530833Y-110376786D01*
X118500595Y-110407024D01*
X118440119Y-110437262D01*
X118379643Y-110437262D01*
X118319167Y-110407024D01*
X118288929Y-110376786D01*
X118258690Y-110316310D01*
X118228452Y-110195357D01*
X118228452Y-110044167D01*
X118258690Y-109923214D01*
X118288929Y-109862738D01*
X118319167Y-109832500D01*
X118379643Y-109802262D01*
X118863452Y-110437262D02*
X118863452Y-109802262D01*
X119226310Y-110437262D02*
X118954167Y-110074405D01*
X119226310Y-109802262D02*
X118863452Y-110165119D01*
X121614405Y-109437262D02*
X121402738Y-109134881D01*
X121251547Y-109437262D02*
X121251547Y-108802262D01*
X121493452Y-108802262D01*
X121553928Y-108832500D01*
X121584167Y-108862738D01*
X121614405Y-108923214D01*
X121614405Y-109013929D01*
X121584167Y-109074405D01*
X121553928Y-109104643D01*
X121493452Y-109134881D01*
X121251547Y-109134881D01*
X122219167Y-109437262D02*
X121856309Y-109437262D01*
X122037738Y-109437262D02*
X122037738Y-108802262D01*
X121977262Y-108892976D01*
X121916786Y-108953452D01*
X121856309Y-108983690D01*
X122793690Y-108802262D02*
X122491309Y-108802262D01*
X122461071Y-109104643D01*
X122491309Y-109074405D01*
X122551786Y-109044167D01*
X122702976Y-109044167D01*
X122763452Y-109074405D01*
X122793690Y-109104643D01*
X122823929Y-109165119D01*
X122823929Y-109316310D01*
X122793690Y-109376786D01*
X122763452Y-109407024D01*
X122702976Y-109437262D01*
X122551786Y-109437262D01*
X122491309Y-109407024D01*
X122461071Y-109376786D01*
X123035595Y-108802262D02*
X123428691Y-108802262D01*
X123217024Y-109044167D01*
X123307738Y-109044167D01*
X123368214Y-109074405D01*
X123398452Y-109104643D01*
X123428691Y-109165119D01*
X123428691Y-109316310D01*
X123398452Y-109376786D01*
X123368214Y-109407024D01*
X123307738Y-109437262D01*
X123126310Y-109437262D01*
X123065833Y-109407024D01*
X123035595Y-109376786D01*
X121886548Y-110437262D02*
X121523690Y-110437262D01*
X121705119Y-110437262D02*
X121705119Y-109802262D01*
X121644643Y-109892976D01*
X121584167Y-109953452D01*
X121523690Y-109983690D01*
X122279643Y-109802262D02*
X122340119Y-109802262D01*
X122400595Y-109832500D01*
X122430833Y-109862738D01*
X122461071Y-109923214D01*
X122491310Y-110044167D01*
X122491310Y-110195357D01*
X122461071Y-110316310D01*
X122430833Y-110376786D01*
X122400595Y-110407024D01*
X122340119Y-110437262D01*
X122279643Y-110437262D01*
X122219167Y-110407024D01*
X122188929Y-110376786D01*
X122158690Y-110316310D01*
X122128452Y-110195357D01*
X122128452Y-110044167D01*
X122158690Y-109923214D01*
X122188929Y-109862738D01*
X122219167Y-109832500D01*
X122279643Y-109802262D01*
X122763452Y-110437262D02*
X122763452Y-109802262D01*
X123126310Y-110437262D02*
X122854167Y-110074405D01*
X123126310Y-109802262D02*
X122763452Y-110165119D01*
X113211428Y-107577262D02*
X113211428Y-108091310D01*
X113241667Y-108151786D01*
X113271905Y-108182024D01*
X113332381Y-108212262D01*
X113453333Y-108212262D01*
X113513809Y-108182024D01*
X113544048Y-108151786D01*
X113574286Y-108091310D01*
X113574286Y-107577262D01*
X114209286Y-108212262D02*
X113846428Y-108212262D01*
X114027857Y-108212262D02*
X114027857Y-107577262D01*
X113967381Y-107667976D01*
X113906905Y-107728452D01*
X113846428Y-107758690D01*
X114783809Y-107577262D02*
X114481428Y-107577262D01*
X114451190Y-107879643D01*
X114481428Y-107849405D01*
X114541905Y-107819167D01*
X114693095Y-107819167D01*
X114753571Y-107849405D01*
X114783809Y-107879643D01*
X114814048Y-107940119D01*
X114814048Y-108091310D01*
X114783809Y-108151786D01*
X114753571Y-108182024D01*
X114693095Y-108212262D01*
X114541905Y-108212262D01*
X114481428Y-108182024D01*
X114451190Y-108151786D01*
X115418810Y-108212262D02*
X115055952Y-108212262D01*
X115237381Y-108212262D02*
X115237381Y-107577262D01*
X115176905Y-107667976D01*
X115116429Y-107728452D01*
X115055952Y-107758690D01*
X112067142Y-108829643D02*
X111855475Y-108829643D01*
X111855475Y-109162262D02*
X111855475Y-108527262D01*
X112157856Y-108527262D01*
X112309047Y-108527262D02*
X112671904Y-108527262D01*
X112490476Y-109162262D02*
X112490476Y-108527262D01*
X112853333Y-108587738D02*
X112883571Y-108557500D01*
X112944048Y-108527262D01*
X113095238Y-108527262D01*
X113155714Y-108557500D01*
X113185952Y-108587738D01*
X113216191Y-108648214D01*
X113216191Y-108708690D01*
X113185952Y-108799405D01*
X112823095Y-109162262D01*
X113216191Y-109162262D01*
X113427857Y-108527262D02*
X113820953Y-108527262D01*
X113609286Y-108769167D01*
X113700000Y-108769167D01*
X113760476Y-108799405D01*
X113790714Y-108829643D01*
X113820953Y-108890119D01*
X113820953Y-109041310D01*
X113790714Y-109101786D01*
X113760476Y-109132024D01*
X113700000Y-109162262D01*
X113518572Y-109162262D01*
X113458095Y-109132024D01*
X113427857Y-109101786D01*
X114062857Y-108587738D02*
X114093095Y-108557500D01*
X114153572Y-108527262D01*
X114304762Y-108527262D01*
X114365238Y-108557500D01*
X114395476Y-108587738D01*
X114425715Y-108648214D01*
X114425715Y-108708690D01*
X114395476Y-108799405D01*
X114032619Y-109162262D01*
X114425715Y-109162262D01*
X115060715Y-109162262D02*
X114849048Y-108859881D01*
X114697857Y-109162262D02*
X114697857Y-108527262D01*
X114939762Y-108527262D01*
X115000238Y-108557500D01*
X115030477Y-108587738D01*
X115060715Y-108648214D01*
X115060715Y-108738929D01*
X115030477Y-108799405D01*
X115000238Y-108829643D01*
X114939762Y-108859881D01*
X114697857Y-108859881D01*
X115635238Y-109162262D02*
X115332857Y-109162262D01*
X115332857Y-108527262D01*
X123381190Y-101627262D02*
X123804524Y-102262262D01*
X123804524Y-101627262D02*
X123381190Y-102262262D01*
X124379048Y-102262262D02*
X124016190Y-102262262D01*
X124197619Y-102262262D02*
X124197619Y-101627262D01*
X124137143Y-101717976D01*
X124076667Y-101778452D01*
X124016190Y-101808690D01*
X124953571Y-101627262D02*
X124651190Y-101627262D01*
X124620952Y-101929643D01*
X124651190Y-101899405D01*
X124711667Y-101869167D01*
X124862857Y-101869167D01*
X124923333Y-101899405D01*
X124953571Y-101929643D01*
X124983810Y-101990119D01*
X124983810Y-102141310D01*
X124953571Y-102201786D01*
X124923333Y-102232024D01*
X124862857Y-102262262D01*
X124711667Y-102262262D01*
X124651190Y-102232024D01*
X124620952Y-102201786D01*
X125588572Y-102262262D02*
X125225714Y-102262262D01*
X125407143Y-102262262D02*
X125407143Y-101627262D01*
X125346667Y-101717976D01*
X125286191Y-101778452D01*
X125225714Y-101808690D01*
X108988095Y-113362262D02*
X108776428Y-113059881D01*
X108625237Y-113362262D02*
X108625237Y-112727262D01*
X108867142Y-112727262D01*
X108927618Y-112757500D01*
X108957857Y-112787738D01*
X108988095Y-112848214D01*
X108988095Y-112938929D01*
X108957857Y-112999405D01*
X108927618Y-113029643D01*
X108867142Y-113059881D01*
X108625237Y-113059881D01*
X109199761Y-112727262D02*
X109623095Y-113362262D01*
X109623095Y-112727262D02*
X109199761Y-113362262D01*
X109713809Y-113422738D02*
X110197619Y-113422738D01*
X110651190Y-113362262D02*
X110348809Y-113362262D01*
X110348809Y-112727262D01*
X110862857Y-113029643D02*
X111074524Y-113029643D01*
X111165238Y-113362262D02*
X110862857Y-113362262D01*
X110862857Y-112727262D01*
X111165238Y-112727262D01*
X111437381Y-113362262D02*
X111437381Y-112727262D01*
X111588572Y-112727262D01*
X111679286Y-112757500D01*
X111739762Y-112817976D01*
X111770001Y-112878452D01*
X111800239Y-112999405D01*
X111800239Y-113090119D01*
X111770001Y-113211071D01*
X111739762Y-113271548D01*
X111679286Y-113332024D01*
X111588572Y-113362262D01*
X111437381Y-113362262D01*
X112405001Y-113362262D02*
X112042143Y-113362262D01*
X112223572Y-113362262D02*
X112223572Y-112727262D01*
X112163096Y-112817976D01*
X112102620Y-112878452D01*
X112042143Y-112908690D01*
X108610118Y-116102262D02*
X108972975Y-116102262D01*
X108791547Y-116737262D02*
X108791547Y-116102262D01*
X109124166Y-116102262D02*
X109547500Y-116737262D01*
X109547500Y-116102262D02*
X109124166Y-116737262D01*
X109638214Y-116797738D02*
X110122024Y-116797738D01*
X110575595Y-116737262D02*
X110273214Y-116737262D01*
X110273214Y-116102262D01*
X110787262Y-116404643D02*
X110998929Y-116404643D01*
X111089643Y-116737262D02*
X110787262Y-116737262D01*
X110787262Y-116102262D01*
X111089643Y-116102262D01*
X111361786Y-116737262D02*
X111361786Y-116102262D01*
X111512977Y-116102262D01*
X111603691Y-116132500D01*
X111664167Y-116192976D01*
X111694406Y-116253452D01*
X111724644Y-116374405D01*
X111724644Y-116465119D01*
X111694406Y-116586071D01*
X111664167Y-116646548D01*
X111603691Y-116707024D01*
X111512977Y-116737262D01*
X111361786Y-116737262D01*
X112329406Y-116737262D02*
X111966548Y-116737262D01*
X112147977Y-116737262D02*
X112147977Y-116102262D01*
X112087501Y-116192976D01*
X112027025Y-116253452D01*
X111966548Y-116283690D01*
X114410952Y-115802262D02*
X114834286Y-116437262D01*
X114834286Y-115802262D02*
X114410952Y-116437262D01*
X115045952Y-115862738D02*
X115076190Y-115832500D01*
X115136667Y-115802262D01*
X115287857Y-115802262D01*
X115348333Y-115832500D01*
X115378571Y-115862738D01*
X115408810Y-115923214D01*
X115408810Y-115983690D01*
X115378571Y-116074405D01*
X115015714Y-116437262D01*
X115408810Y-116437262D01*
X32003333Y-135082024D02*
X32094048Y-135112262D01*
X32245238Y-135112262D01*
X32305714Y-135082024D01*
X32335952Y-135051786D01*
X32366191Y-134991310D01*
X32366191Y-134930833D01*
X32335952Y-134870357D01*
X32305714Y-134840119D01*
X32245238Y-134809881D01*
X32124286Y-134779643D01*
X32063810Y-134749405D01*
X32033571Y-134719167D01*
X32003333Y-134658690D01*
X32003333Y-134598214D01*
X32033571Y-134537738D01*
X32063810Y-134507500D01*
X32124286Y-134477262D01*
X32275476Y-134477262D01*
X32366191Y-134507500D01*
X32577857Y-134477262D02*
X32729048Y-135112262D01*
X32850000Y-134658690D01*
X32970953Y-135112262D01*
X33122143Y-134477262D01*
X33696667Y-135112262D02*
X33333809Y-135112262D01*
X33515238Y-135112262D02*
X33515238Y-134477262D01*
X33454762Y-134567976D01*
X33394286Y-134628452D01*
X33333809Y-134658690D01*
X57719167Y-141426786D02*
X57688929Y-141457024D01*
X57598214Y-141487262D01*
X57537738Y-141487262D01*
X57447024Y-141457024D01*
X57386548Y-141396548D01*
X57356309Y-141336071D01*
X57326071Y-141215119D01*
X57326071Y-141124405D01*
X57356309Y-141003452D01*
X57386548Y-140942976D01*
X57447024Y-140882500D01*
X57537738Y-140852262D01*
X57598214Y-140852262D01*
X57688929Y-140882500D01*
X57719167Y-140912738D01*
X57930833Y-140852262D02*
X58323929Y-140852262D01*
X58112262Y-141094167D01*
X58202976Y-141094167D01*
X58263452Y-141124405D01*
X58293690Y-141154643D01*
X58323929Y-141215119D01*
X58323929Y-141366310D01*
X58293690Y-141426786D01*
X58263452Y-141457024D01*
X58202976Y-141487262D01*
X58021548Y-141487262D01*
X57961071Y-141457024D01*
X57930833Y-141426786D01*
X78719167Y-140476786D02*
X78688929Y-140507024D01*
X78598214Y-140537262D01*
X78537738Y-140537262D01*
X78447024Y-140507024D01*
X78386548Y-140446548D01*
X78356309Y-140386071D01*
X78326071Y-140265119D01*
X78326071Y-140174405D01*
X78356309Y-140053452D01*
X78386548Y-139992976D01*
X78447024Y-139932500D01*
X78537738Y-139902262D01*
X78598214Y-139902262D01*
X78688929Y-139932500D01*
X78719167Y-139962738D01*
X79263452Y-139902262D02*
X79142500Y-139902262D01*
X79082024Y-139932500D01*
X79051786Y-139962738D01*
X78991309Y-140053452D01*
X78961071Y-140174405D01*
X78961071Y-140416310D01*
X78991309Y-140476786D01*
X79021548Y-140507024D01*
X79082024Y-140537262D01*
X79202976Y-140537262D01*
X79263452Y-140507024D01*
X79293690Y-140476786D01*
X79323929Y-140416310D01*
X79323929Y-140265119D01*
X79293690Y-140204643D01*
X79263452Y-140174405D01*
X79202976Y-140144167D01*
X79082024Y-140144167D01*
X79021548Y-140174405D01*
X78991309Y-140204643D01*
X78961071Y-140265119D01*
X82491786Y-137901786D02*
X82461548Y-137932024D01*
X82370833Y-137962262D01*
X82310357Y-137962262D01*
X82219643Y-137932024D01*
X82159167Y-137871548D01*
X82128928Y-137811071D01*
X82098690Y-137690119D01*
X82098690Y-137599405D01*
X82128928Y-137478452D01*
X82159167Y-137417976D01*
X82219643Y-137357500D01*
X82310357Y-137327262D01*
X82370833Y-137327262D01*
X82461548Y-137357500D01*
X82491786Y-137387738D01*
X83096548Y-137962262D02*
X82733690Y-137962262D01*
X82915119Y-137962262D02*
X82915119Y-137327262D01*
X82854643Y-137417976D01*
X82794167Y-137478452D01*
X82733690Y-137508690D01*
X83308214Y-137327262D02*
X83701310Y-137327262D01*
X83489643Y-137569167D01*
X83580357Y-137569167D01*
X83640833Y-137599405D01*
X83671071Y-137629643D01*
X83701310Y-137690119D01*
X83701310Y-137841310D01*
X83671071Y-137901786D01*
X83640833Y-137932024D01*
X83580357Y-137962262D01*
X83398929Y-137962262D01*
X83338452Y-137932024D01*
X83308214Y-137901786D01*
X91841786Y-111801786D02*
X91811548Y-111832024D01*
X91720833Y-111862262D01*
X91660357Y-111862262D01*
X91569643Y-111832024D01*
X91509167Y-111771548D01*
X91478928Y-111711071D01*
X91448690Y-111590119D01*
X91448690Y-111499405D01*
X91478928Y-111378452D01*
X91509167Y-111317976D01*
X91569643Y-111257500D01*
X91660357Y-111227262D01*
X91720833Y-111227262D01*
X91811548Y-111257500D01*
X91841786Y-111287738D01*
X92144167Y-111862262D02*
X92265119Y-111862262D01*
X92325595Y-111832024D01*
X92355833Y-111801786D01*
X92416309Y-111711071D01*
X92446548Y-111590119D01*
X92446548Y-111348214D01*
X92416309Y-111287738D01*
X92386071Y-111257500D01*
X92325595Y-111227262D01*
X92204643Y-111227262D01*
X92144167Y-111257500D01*
X92113928Y-111287738D01*
X92083690Y-111348214D01*
X92083690Y-111499405D01*
X92113928Y-111559881D01*
X92144167Y-111590119D01*
X92204643Y-111620357D01*
X92325595Y-111620357D01*
X92386071Y-111590119D01*
X92416309Y-111559881D01*
X92446548Y-111499405D01*
X93051310Y-111862262D02*
X92688452Y-111862262D01*
X92869881Y-111862262D02*
X92869881Y-111227262D01*
X92809405Y-111317976D01*
X92748929Y-111378452D01*
X92688452Y-111408690D01*
X91657976Y-112413929D02*
X91657976Y-112837262D01*
X91506786Y-112172024D02*
X91355595Y-112625595D01*
X91748691Y-112625595D01*
X91990595Y-112776786D02*
X92020834Y-112807024D01*
X91990595Y-112837262D01*
X91960357Y-112807024D01*
X91990595Y-112776786D01*
X91990595Y-112837262D01*
X92232500Y-112202262D02*
X92655834Y-112202262D01*
X92383691Y-112837262D01*
X93169881Y-112413929D02*
X93169881Y-112837262D01*
X92897738Y-112413929D02*
X92897738Y-112746548D01*
X92927977Y-112807024D01*
X92988453Y-112837262D01*
X93079167Y-112837262D01*
X93139643Y-112807024D01*
X93169881Y-112776786D01*
X93683929Y-112504643D02*
X93472262Y-112504643D01*
X93472262Y-112837262D02*
X93472262Y-112202262D01*
X93774643Y-112202262D01*
X65491786Y-95537262D02*
X65280119Y-95234881D01*
X65128928Y-95537262D02*
X65128928Y-94902262D01*
X65370833Y-94902262D01*
X65431309Y-94932500D01*
X65461548Y-94962738D01*
X65491786Y-95023214D01*
X65491786Y-95113929D01*
X65461548Y-95174405D01*
X65431309Y-95204643D01*
X65370833Y-95234881D01*
X65128928Y-95234881D01*
X66096548Y-95537262D02*
X65733690Y-95537262D01*
X65915119Y-95537262D02*
X65915119Y-94902262D01*
X65854643Y-94992976D01*
X65794167Y-95053452D01*
X65733690Y-95083690D01*
X66671071Y-94902262D02*
X66368690Y-94902262D01*
X66338452Y-95204643D01*
X66368690Y-95174405D01*
X66429167Y-95144167D01*
X66580357Y-95144167D01*
X66640833Y-95174405D01*
X66671071Y-95204643D01*
X66701310Y-95265119D01*
X66701310Y-95416310D01*
X66671071Y-95476786D01*
X66640833Y-95507024D01*
X66580357Y-95537262D01*
X66429167Y-95537262D01*
X66368690Y-95507024D01*
X66338452Y-95476786D01*
X65763929Y-96562262D02*
X65401071Y-96562262D01*
X65582500Y-96562262D02*
X65582500Y-95927262D01*
X65522024Y-96017976D01*
X65461548Y-96078452D01*
X65401071Y-96108690D01*
X66036071Y-96562262D02*
X66036071Y-95927262D01*
X66398929Y-96562262D02*
X66126786Y-96199405D01*
X66398929Y-95927262D02*
X66036071Y-96290119D01*
X73666786Y-94937262D02*
X73455119Y-94634881D01*
X73303928Y-94937262D02*
X73303928Y-94302262D01*
X73545833Y-94302262D01*
X73606309Y-94332500D01*
X73636548Y-94362738D01*
X73666786Y-94423214D01*
X73666786Y-94513929D01*
X73636548Y-94574405D01*
X73606309Y-94604643D01*
X73545833Y-94634881D01*
X73303928Y-94634881D01*
X74271548Y-94937262D02*
X73908690Y-94937262D01*
X74090119Y-94937262D02*
X74090119Y-94302262D01*
X74029643Y-94392976D01*
X73969167Y-94453452D01*
X73908690Y-94483690D01*
X74815833Y-94302262D02*
X74694881Y-94302262D01*
X74634405Y-94332500D01*
X74604167Y-94362738D01*
X74543690Y-94453452D01*
X74513452Y-94574405D01*
X74513452Y-94816310D01*
X74543690Y-94876786D01*
X74573929Y-94907024D01*
X74634405Y-94937262D01*
X74755357Y-94937262D01*
X74815833Y-94907024D01*
X74846071Y-94876786D01*
X74876310Y-94816310D01*
X74876310Y-94665119D01*
X74846071Y-94604643D01*
X74815833Y-94574405D01*
X74755357Y-94544167D01*
X74634405Y-94544167D01*
X74573929Y-94574405D01*
X74543690Y-94604643D01*
X74513452Y-94665119D01*
X73611548Y-96037262D02*
X73248690Y-96037262D01*
X73430119Y-96037262D02*
X73430119Y-95402262D01*
X73369643Y-95492976D01*
X73309167Y-95553452D01*
X73248690Y-95583690D01*
X74004643Y-95402262D02*
X74065119Y-95402262D01*
X74125595Y-95432500D01*
X74155833Y-95462738D01*
X74186071Y-95523214D01*
X74216310Y-95644167D01*
X74216310Y-95795357D01*
X74186071Y-95916310D01*
X74155833Y-95976786D01*
X74125595Y-96007024D01*
X74065119Y-96037262D01*
X74004643Y-96037262D01*
X73944167Y-96007024D01*
X73913929Y-95976786D01*
X73883690Y-95916310D01*
X73853452Y-95795357D01*
X73853452Y-95644167D01*
X73883690Y-95523214D01*
X73913929Y-95462738D01*
X73944167Y-95432500D01*
X74004643Y-95402262D01*
X74488452Y-96037262D02*
X74488452Y-95402262D01*
X74851310Y-96037262D02*
X74579167Y-95674405D01*
X74851310Y-95402262D02*
X74488452Y-95765119D01*
X73841786Y-92487262D02*
X73630119Y-92184881D01*
X73478928Y-92487262D02*
X73478928Y-91852262D01*
X73720833Y-91852262D01*
X73781309Y-91882500D01*
X73811548Y-91912738D01*
X73841786Y-91973214D01*
X73841786Y-92063929D01*
X73811548Y-92124405D01*
X73781309Y-92154643D01*
X73720833Y-92184881D01*
X73478928Y-92184881D01*
X74446548Y-92487262D02*
X74083690Y-92487262D01*
X74265119Y-92487262D02*
X74265119Y-91852262D01*
X74204643Y-91942976D01*
X74144167Y-92003452D01*
X74083690Y-92033690D01*
X74658214Y-91852262D02*
X75081548Y-91852262D01*
X74809405Y-92487262D01*
X73811548Y-93437262D02*
X73448690Y-93437262D01*
X73630119Y-93437262D02*
X73630119Y-92802262D01*
X73569643Y-92892976D01*
X73509167Y-92953452D01*
X73448690Y-92983690D01*
X74204643Y-92802262D02*
X74265119Y-92802262D01*
X74325595Y-92832500D01*
X74355833Y-92862738D01*
X74386071Y-92923214D01*
X74416310Y-93044167D01*
X74416310Y-93195357D01*
X74386071Y-93316310D01*
X74355833Y-93376786D01*
X74325595Y-93407024D01*
X74265119Y-93437262D01*
X74204643Y-93437262D01*
X74144167Y-93407024D01*
X74113929Y-93376786D01*
X74083690Y-93316310D01*
X74053452Y-93195357D01*
X74053452Y-93044167D01*
X74083690Y-92923214D01*
X74113929Y-92862738D01*
X74144167Y-92832500D01*
X74204643Y-92802262D01*
X74688452Y-93437262D02*
X74688452Y-92802262D01*
X75051310Y-93437262D02*
X74779167Y-93074405D01*
X75051310Y-92802262D02*
X74688452Y-93165119D01*
X59241786Y-93501786D02*
X59211548Y-93532024D01*
X59120833Y-93562262D01*
X59060357Y-93562262D01*
X58969643Y-93532024D01*
X58909167Y-93471548D01*
X58878928Y-93411071D01*
X58848690Y-93290119D01*
X58848690Y-93199405D01*
X58878928Y-93078452D01*
X58909167Y-93017976D01*
X58969643Y-92957500D01*
X59060357Y-92927262D01*
X59120833Y-92927262D01*
X59211548Y-92957500D01*
X59241786Y-92987738D01*
X59786071Y-93138929D02*
X59786071Y-93562262D01*
X59634881Y-92897024D02*
X59483690Y-93350595D01*
X59876786Y-93350595D01*
X60239643Y-92927262D02*
X60300119Y-92927262D01*
X60360595Y-92957500D01*
X60390833Y-92987738D01*
X60421071Y-93048214D01*
X60451310Y-93169167D01*
X60451310Y-93320357D01*
X60421071Y-93441310D01*
X60390833Y-93501786D01*
X60360595Y-93532024D01*
X60300119Y-93562262D01*
X60239643Y-93562262D01*
X60179167Y-93532024D01*
X60148929Y-93501786D01*
X60118690Y-93441310D01*
X60088452Y-93320357D01*
X60088452Y-93169167D01*
X60118690Y-93048214D01*
X60148929Y-92987738D01*
X60179167Y-92957500D01*
X60239643Y-92927262D01*
X50266786Y-90601786D02*
X50236548Y-90632024D01*
X50145833Y-90662262D01*
X50085357Y-90662262D01*
X49994643Y-90632024D01*
X49934167Y-90571548D01*
X49903928Y-90511071D01*
X49873690Y-90390119D01*
X49873690Y-90299405D01*
X49903928Y-90178452D01*
X49934167Y-90117976D01*
X49994643Y-90057500D01*
X50085357Y-90027262D01*
X50145833Y-90027262D01*
X50236548Y-90057500D01*
X50266786Y-90087738D01*
X50811071Y-90238929D02*
X50811071Y-90662262D01*
X50659881Y-89997024D02*
X50508690Y-90450595D01*
X50901786Y-90450595D01*
X51083214Y-90027262D02*
X51476310Y-90027262D01*
X51264643Y-90269167D01*
X51355357Y-90269167D01*
X51415833Y-90299405D01*
X51446071Y-90329643D01*
X51476310Y-90390119D01*
X51476310Y-90541310D01*
X51446071Y-90601786D01*
X51415833Y-90632024D01*
X51355357Y-90662262D01*
X51173929Y-90662262D01*
X51113452Y-90632024D01*
X51083214Y-90601786D01*
X34841786Y-90601786D02*
X34811548Y-90632024D01*
X34720833Y-90662262D01*
X34660357Y-90662262D01*
X34569643Y-90632024D01*
X34509167Y-90571548D01*
X34478928Y-90511071D01*
X34448690Y-90390119D01*
X34448690Y-90299405D01*
X34478928Y-90178452D01*
X34509167Y-90117976D01*
X34569643Y-90057500D01*
X34660357Y-90027262D01*
X34720833Y-90027262D01*
X34811548Y-90057500D01*
X34841786Y-90087738D01*
X35386071Y-90238929D02*
X35386071Y-90662262D01*
X35234881Y-89997024D02*
X35083690Y-90450595D01*
X35476786Y-90450595D01*
X36021071Y-90027262D02*
X35718690Y-90027262D01*
X35688452Y-90329643D01*
X35718690Y-90299405D01*
X35779167Y-90269167D01*
X35930357Y-90269167D01*
X35990833Y-90299405D01*
X36021071Y-90329643D01*
X36051310Y-90390119D01*
X36051310Y-90541310D01*
X36021071Y-90601786D01*
X35990833Y-90632024D01*
X35930357Y-90662262D01*
X35779167Y-90662262D01*
X35718690Y-90632024D01*
X35688452Y-90601786D01*
X109741786Y-136151786D02*
X109711548Y-136182024D01*
X109620833Y-136212262D01*
X109560357Y-136212262D01*
X109469643Y-136182024D01*
X109409167Y-136121548D01*
X109378928Y-136061071D01*
X109348690Y-135940119D01*
X109348690Y-135849405D01*
X109378928Y-135728452D01*
X109409167Y-135667976D01*
X109469643Y-135607500D01*
X109560357Y-135577262D01*
X109620833Y-135577262D01*
X109711548Y-135607500D01*
X109741786Y-135637738D01*
X110346548Y-136212262D02*
X109983690Y-136212262D01*
X110165119Y-136212262D02*
X110165119Y-135577262D01*
X110104643Y-135667976D01*
X110044167Y-135728452D01*
X109983690Y-135758690D01*
X110921071Y-135577262D02*
X110618690Y-135577262D01*
X110588452Y-135879643D01*
X110618690Y-135849405D01*
X110679167Y-135819167D01*
X110830357Y-135819167D01*
X110890833Y-135849405D01*
X110921071Y-135879643D01*
X110951310Y-135940119D01*
X110951310Y-136091310D01*
X110921071Y-136151786D01*
X110890833Y-136182024D01*
X110830357Y-136212262D01*
X110679167Y-136212262D01*
X110618690Y-136182024D01*
X110588452Y-136151786D01*
M02*
